<?xml version="1.0" standalone="no"?>
<!DOCTYPE svg PUBLIC "-//W3C//DTD SVG 20010904//EN"
 "http://www.w3.org/TR/2001/REC-SVG-20010904/DTD/svg10.dtd">
<svg version="1.0" xmlns="http://www.w3.org/2000/svg"
 width="512.000000pt" height="512.000000pt" viewBox="0 0 512.000000 512.000000"
 preserveAspectRatio="xMidYMid meet">
<metadata>
Created by potrace 1.14, written by Peter Selinger 2001-2017
</metadata>
<g transform="translate(0.000000,512.000000) scale(0.100000,-0.100000)"
fill="#000000" stroke="none">
<path d="M2269 4277 c-179 -67 -215 -288 -80 -491 80 -120 188 -212 338 -289
l72 -37 83 43 c194 99 339 254 388 415 46 149 11 265 -105 341 -33 21 -51 26
-110 26 -60 0 -78 -5 -130 -33 -33 -18 -75 -46 -94 -62 l-33 -30 -41 36 c-91
77 -209 110 -288 81z"/>
<path d="M1675 3583 c-274 -23 -486 -92 -702 -226 -28 -18 -62 -41 -75 -52
-13 -11 -35 -27 -49 -36 -41 -27 -181 -168 -236 -239 -214 -275 -315 -581
-308 -930 3 -147 6 -171 37 -305 43 -187 131 -375 249 -532 81 -108 247 -264
356 -336 252 -164 485 -237 778 -242 136 -3 177 1 330 28 147 27 355 115 499
211 38 25 70 46 72 46 2 0 41 -24 87 -54 125 -82 323 -169 437 -193 14 -3 30
-6 35 -7 21 -5 81 -17 110 -22 17 -3 98 -7 180 -8 146 -3 257 8 356 34 24 7
52 14 61 16 95 21 250 89 378 165 67 40 183 134 258 209 188 189 317 417 381
675 18 73 23 103 36 205 5 37 6 241 1 275 -1 11 -6 47 -10 80 -10 75 -48 221
-81 309 -125 331 -390 621 -715 781 -115 57 -287 113 -395 129 -16 2 -49 7
-73 11 -68 11 -279 8 -372 -5 -209 -29 -412 -106 -600 -228 l-74 -49 -83 54
c-148 97 -366 187 -503 209 -14 2 -34 6 -45 9 -59 13 -250 24 -320 18z m215
-407 c119 -17 239 -54 341 -107 120 -63 116 -54 65 -129 -114 -170 -202 -392
-232 -585 -13 -86 -16 -316 -5 -401 30 -226 124 -473 246 -643 l36 -49 -31
-22 c-55 -39 -200 -101 -298 -127 -79 -21 -122 -26 -232 -27 -152 -1 -203 5
-309 34 -102 29 -180 63 -270 119 -92 57 -105 68 -191 153 -206 204 -314 476
-305 768 5 196 52 355 151 522 57 95 218 264 305 321 222 144 489 207 729 173z
m1750 -1 c454 -51 851 -451 905 -910 44 -376 -113 -746 -412 -971 -39 -30 -76
-54 -81 -54 -6 0 -12 -3 -14 -7 -8 -20 -149 -83 -243 -110 -144 -41 -357 -51
-494 -24 -122 25 -266 81 -353 139 l-37 24 37 51 c75 104 166 292 198 407 14
53 18 67 29 120 20 94 29 190 28 305 0 123 -6 174 -37 330 -2 11 -19 63 -36
115 -39 114 -94 226 -165 336 l-53 82 75 42 c188 108 417 152 653 125z m-940
-590 c75 -156 104 -287 103 -462 -1 -141 -22 -252 -69 -372 -35 -88 -104 -205
-114 -194 -23 24 -93 169 -118 248 -92 284 -60 596 87 852 43 74 39 76 111
-72z"/>
</g>
</svg>
