<svg width="80" height="18" fill="none" xmlns="http://www.w3.org/2000/svg"><path fill-rule="evenodd" clip-rule="evenodd" d="M10.296 1.514c-.657.695-.985 1.691-.985 2.99v8.338c0 1.298.328 2.295.985 2.99.657.695 1.604 1.042 2.84 1.042 1.238 0 2.185-.347 2.841-1.042.657-.695.985-1.692.985-2.99V4.503c0-1.298-.328-2.294-.985-2.99C15.321.82 14.374.472 13.137.472c-1.238 0-2.184.348-2.841 1.043zM1.23 12.758V4.61c0-1.26.316-2.229.948-2.906C2.811 1.02 3.73.676 4.936.676c1.205 0 2.124.343 2.757 1.027.632.677.948 1.646.948 2.906v1.53H6.292V4.455c0-1.027-.426-1.54-1.279-1.54-.86 0-1.29.513-1.29 1.54v8.455c0 1.02.43 1.53 1.29 1.53.853 0 1.28-.51 1.28-1.53v-2.24H8.64v2.087c0 1.26-.316 2.232-.948 2.917-.633.677-1.552 1.016-2.757 1.016-1.206 0-2.125-.339-2.757-1.016-.632-.685-.948-1.657-.948-2.917zm45.238 3.606V.699h3.66c1.228 0 2.151.331 2.769.994.624.662.937 1.624.937 2.884v2.032c0 1.26-.313 2.22-.938 2.883-.617.656-1.54.984-2.767.984h-1.18v5.888h-2.481zm2.48-8.117h1.18c.412 0 .717-.113.916-.339.198-.225.298-.608.298-1.147V4.413c0-.54-.1-.918-.298-1.136-.199-.226-.504-.339-.915-.339h-1.18v5.31zm-10.76 8.123V.704h6.77v2.24h-4.289v4.369h3.408v2.228h-3.408v4.588h4.29v2.24h-6.77zM28.683 4.63v8.15c0 1.26.316 2.232.948 2.916.633.678 1.552 1.016 2.757 1.016 1.206 0 2.125-.338 2.757-1.016.632-.684.948-1.657.948-2.916v-2.087h-2.348v2.24c0 1.019-.427 1.529-1.28 1.529-.86 0-1.29-.51-1.29-1.53V4.479c0-1.027.43-1.54 1.29-1.54.853 0 1.28.513 1.28 1.54v1.683h2.348V4.63c0-1.26-.316-2.228-.948-2.905-.632-.685-1.551-1.027-2.757-1.027-1.205 0-2.124.342-2.757 1.026-.632.678-.948 1.646-.948 2.906zm-16.852 8.371c0 .58.118.99.355 1.226.236.237.553.355.95.355.398 0 .714-.118.951-.355s.355-.645.355-1.226v-8.66c0-.58-.118-.988-.355-1.225-.237-.236-.553-.355-.95-.355-.398 0-.715.119-.951.355-.237.237-.355.646-.355 1.226v8.66zm9.261-7.926V16.69h-2.268V.655h3.162l2.589 9.598V.655h2.245V16.69h-2.59L21.092 5.076zM62.124.655h-7.789v2.29h2.635v13.746h2.52V2.945h2.634V.655z" fill="#171819"/></svg>