<svg width="98" height="26" fill="none" xmlns="http://www.w3.org/2000/svg"><path fill-rule="evenodd" clip-rule="evenodd" d="M14.546 1.652c-1.053 1.102-1.58 2.681-1.58 4.74v13.217c0 2.058.527 3.637 1.58 4.739C15.6 25.449 17.12 26 19.105 26c1.985 0 3.504-.55 4.558-1.652 1.054-1.102 1.58-2.681 1.58-4.74V6.392c0-2.058-.526-3.637-1.58-4.739C22.61.551 21.09 0 19.105 0 17.12 0 15.6.55 14.546 1.652zM0 19.476V6.559c0-1.997.507-3.533 1.522-4.606C2.536.868 4.01.325 5.945.325s3.41.543 4.424 1.628c1.015 1.073 1.522 2.609 1.522 4.606v2.424H8.12V6.316c0-1.627-.683-2.441-2.052-2.441-1.38 0-2.07.814-2.07 2.441v13.402c0 1.616.69 2.424 2.07 2.424 1.369 0 2.053-.808 2.053-2.424v-3.55h3.769v3.308c0 1.997-.507 3.538-1.522 4.623-1.014 1.074-2.489 1.61-4.424 1.61-1.934 0-3.409-.536-4.423-1.61C.507 23.014 0 21.473 0 19.476zm72.591 5.715V.36h5.875c1.97 0 3.45.526 4.441 1.576 1.003 1.05 1.504 2.574 1.504 4.571v3.221c0 1.997-.501 3.52-1.504 4.571-.99 1.04-2.471 1.559-4.441 1.559h-1.893v9.333H72.59zm3.982-12.866h1.893c.66 0 1.15-.178 1.469-.536.318-.358.477-.964.477-1.818V6.248c0-.855-.159-1.455-.477-1.801-.319-.358-.809-.537-1.47-.537h-1.892v8.415zM59.303 25.2V.37h10.864v3.55h-6.883v6.926h5.467v3.532h-5.467v7.272h6.883v3.55H59.302zM44.051 6.594v12.917c0 1.997.507 3.538 1.521 4.623 1.015 1.074 2.49 1.61 4.424 1.61 1.935 0 3.41-.536 4.424-1.61 1.014-1.085 1.522-2.626 1.522-4.623v-3.307h-3.77v3.55c0 1.616-.684 2.424-2.052 2.424-1.38 0-2.07-.808-2.07-2.424V6.352c0-1.628.69-2.442 2.07-2.442 1.368 0 2.052.814 2.052 2.442v2.666h3.77V6.594c0-1.997-.508-3.532-1.522-4.606C53.406.903 51.93.36 49.997.36c-1.935 0-3.41.543-4.424 1.628-1.014 1.074-1.521 2.609-1.521 4.606zm-27.043 13.27c0 .92.19 1.567.57 1.942.38.375.889.563 1.526.563s1.145-.188 1.525-.563c.38-.375.57-1.023.57-1.943V6.137c0-.92-.19-1.568-.57-1.943-.38-.375-.888-.563-1.525-.563-.637 0-1.146.188-1.526.563-.38.375-.57 1.023-.57 1.943v13.726zM31.871 7.298v18.41h-3.639V.291h5.073l4.154 15.215V.29h3.603v25.418h-4.154L31.87 7.3zM97.713.29H85.214v3.63h4.228v21.79h4.044V3.922h4.227V.29z" fill="#fff"/></svg>