<svg viewBox="0 0 71 75" xmlns="http://www.w3.org/2000/svg" xmlns:xlink="http://www.w3.org/1999/xlink"><style>:root&gt;svg{display:none}:root&gt;svg:target{display:block}</style><svg viewBox="0 0 66 75" id="icon1" xmlns="http://www.w3.org/2000/svg"><path d="M34.469 1.5l-.938 3c-.353 1.132-2.069 1.5-7 1.5-8.62 0-8.439 1.825.219 2.204 6.051.265 6.782.52 7.059 2.462.29 2.036 1.024 2.208 12.25 2.878L58 14.257v41.675l-10.75.284-10.75.284-.313 3.25-.314 3.25h10.595c9.217 0 10.665-.228 11.136-1.75.298-.962.959-2.531 1.469-3.486.51-.955.927-11.595.927-23.643C60 9.233 60.694 11 50.918 11 46.324 11 45 10.664 45 9.5 45 8.295 46.533 8 52.8 8c4.733 0 8.272.472 9 1.2.877.877 1.2 8.798 1.2 29.393 0 24.786-.191 28.266-1.582 28.8-.87.334-7.62.607-15 .607H33V47.508c0-19.408-.106-20.557-2-21.74-1.483-.926-2-2.332-2-5.437 0-6.334-3.914-9.053-9.066-6.296-1.341.718-1.934 2.098-1.934 4.5C18 20.948 17.545 22 16.5 22c-1.189 0-1.5-1.437-1.5-6.929C15 7.297 13.661 5 9.129 5 4.757 5 4 6.618 4 15.959c0 7.477-.253 8.718-2 9.809C.099 26.955 0 28.1 0 48.857v21.839l4.218 1.902c6.309 2.845 19.822 2.654 25.492-.36C33.511 70.217 35.328 70 48.403 70c13.588 0 14.575-.13 15.957-2.104l1.474-2.104.447 2.354c.703 3.706.592-38.54-.131-49.477C65.34 6.414 64.92 6 53.309 6 45.974 6 45 5.789 45 4.2 45 1.389 42.939 0 38.769 0c-2.531 0-3.991.509-4.3 1.5M36 6.437c0 4.562.001 4.563 3.557 4.563h3.558l-.308-4.25c-.288-3.989-.506-4.269-3.557-4.563-3.238-.313-3.25-.296-3.25 4.25M7 10c0 1.467.667 2 2.5 2s2.5-.533 2.5-2-.667-2-2.5-2S7 8.533 7 10m0 6c0 .55 1.125 1 2.5 1s2.5-.45 2.5-1-1.125-1-2.5-1-2.5.45-2.5 1m14 2.5c0 2 .5 2.5 2.5 2.5s2.5-.5 2.5-2.5-.5-2.5-2.5-2.5-2.5.5-2.5 2.5m12-.5c0 .6 4 1 10 1s10-.4 10-1-4-1-10-1-10 .4-10 1M7.31 24.5c.005 3.3.192 4.529.415 2.732.222-1.797.218-4.497-.01-6-.229-1.503-.411-.032-.405 3.268m3.357-4.833C9.597 20.736 9.899 31 11 31c.556 0 1-2.667 1-6 0-6.054-.123-6.544-1.333-5.333M35 23.5c0 1.222 1.667 1.5 9 1.5s9-.278 9-1.5-1.667-1.5-9-1.5-9 .278-9 1.5M21 24c0 .55 1.125 1 2.5 1s2.5-.45 2.5-1-1.125-1-2.5-1-2.5.45-2.5 1m-6 4.5c0 2.444.452 3.5 1.5 3.5s1.5-1.056 1.5-3.5-.452-3.5-1.5-3.5-1.5 1.056-1.5 3.5M.428 49c0 12.375.143 17.438.319 11.25.175-6.187.175-16.312 0-22.5C.571 31.563.428 36.625.428 49M21 29.07c0 1.571.539 1.992 2.24 1.75 3.324-.475 3.616-3.82.333-3.82-1.935 0-2.573.513-2.573 2.07m14.667-1.403C33.861 29.472 35.745 30 44 30c7.333 0 9-.278 9-1.5 0-1.213-1.593-1.5-8.333-1.5-4.584 0-8.634.3-9 .667M2 49.944v19.158l3.696 1.544c4.553 1.903 15.511 2.145 20.554.456L30 69.845V31.236l-3.75 1.338c-5.933 2.117-15.935 1.644-22.5-1.066C2.119 30.835 2 32.09 2 49.944M35 34c0 .593 3.667 1 9 1s9-.407 9-1-3.667-1-9-1-9 .407-9 1m-9 15c0 7.333.389 12 1 12s1-4.667 1-12-.389-12-1-12-1 4.667-1 12m9-5v6h18V38H35v6m3 0v4h13v-8H38v4m0 16c0 .588 3.48 1 8.441 1 4.643 0 8.719-.45 9.059-1 .395-.639-2.656-1-8.441-1-5.373 0-9.059.407-9.059 1M6 67.464c0 1.736 3.232 2.509 10.5 2.509 6.699 0 10.5-.759 10.5-2.097 0-.494-3.003-.612-6.75-.265s-8.418.164-10.5-.412c-2.945-.815-3.75-.758-3.75.265" fill-rule="evenodd"/></svg><svg viewBox="0 0 68 75" id="icon2" xmlns="http://www.w3.org/2000/svg"><path d="M15.417 1.355c-.286.746-.384 4.233-.218 7.75L15.5 15.5l3.75.31c2.453.203 3.75.809 3.75 1.75 0 1.119-1.614 1.443-7.25 1.455-3.988.009-7.73.346-8.316.75-.586.404-2.499 2.841-4.25 5.415C.654 28.898 0 30.888 0 34.858c0 4.139.429 5.334 2.5 6.963C4.963 43.759 5 44.005 5 58.394 5 72.333 4.909 73 3 73c-1.1 0-2 .45-2 1 0 .646 11.667 1 33 1s33-.354 33-1c0-.55-.9-1-2-1-1.908 0-2-.667-2-14.491V44.017l3-2.867c2.637-2.519 2.99-3.519 2.921-8.258-.043-2.966-.311-4.814-.595-4.107-.31.772-1.988-.826-4.202-4L60.437 19.5l-7.731-.5c-8.173-.529-10.343-2.16-3.989-3l3.783-.5.3-6.337c.18-3.812-.167-6.901-.872-7.75-1.682-2.027-35.735-2.08-36.511-.058m2.274 1.288c-.38.38-.691 3.101-.691 6.048v5.357l16.75-.274L50.5 13.5v-11l-16.059-.274c-8.833-.15-16.371.037-16.75.417M25 6c0 .593 3.667 1 9 1s9-.407 9-1-3.667-1-9-1-9 .407-9 1m4 5c0 .55 1.998 1 4.441 1 2.443 0 4.719-.45 5.059-1 .381-.616-1.323-1-4.441-1-2.782 0-5.059.45-5.059 1m-3 6.458C26 18.59 27.063 19 30 19c2.2 0 4 .45 4 1 0 .613-4.811 1-12.432 1H9.136l-1.904 2.75c-1.047 1.512-2.229 3.313-2.627 4-.572.988 5.573 1.25 29.351 1.25h30.073l-2.37-3.75-2.37-3.75-8.58-.288c-7.989-.268-8.602-.44-8.894-2.5-.29-2.035-.934-2.235-8.065-2.504-6.442-.243-7.75-.032-7.75 1.25M.31 34.5c.005 3.3.192 4.529.415 2.732.222-1.797.218-4.497-.01-6C.486 29.729.304 31.2.31 34.5m1.69.878c0 3.937 2.046 6.06 4.952 5.137C8.559 40.005 9 39.018 9 35.933 9 32.105 8.907 32 5.5 32c-3.309 0-3.5.184-3.5 3.378m10 .555c0 3.159.428 4.068 2.174 4.622 2.682.851 4.826-1.701 4.826-5.746C19 32.265 18.669 32 15.5 32c-3.407 0-3.5.105-3.5 3.933m9-.555c0 7.058 6.212 7.306 6.81.271.304-3.573.237-3.649-3.25-3.649-3.377 0-3.56.173-3.56 3.378m9-.569c0 4.045 2.144 6.597 4.826 5.746C36.572 40.001 37 39.092 37 35.933 37 32.105 36.907 32 33.5 32c-3.169 0-3.5.265-3.5 2.809m10 1.124c0 3.085.441 4.072 2.048 4.582 2.906.923 4.952-1.2 4.952-5.137C47 32.184 46.809 32 43.5 32c-3.407 0-3.5.105-3.5 3.933m9-.555c0 7.058 6.212 7.306 6.81.271.304-3.573.237-3.649-3.25-3.649-3.377 0-3.56.173-3.56 3.378m9-.569c0 3.674 2.138 6.502 4.566 6.041 1.487-.282 2.005-1.348 2.241-4.609L65.115 32h-3.558C58.325 32 58 32.257 58 34.809M8.75 42.428C7.25 43.535 7 45.458 7 55.86V68h6v-8.3c0-5.122.459-8.759 1.2-9.5 1.558-1.558 12.042-1.558 13.6 0 .741.741 1.2 4.378 1.2 9.5V68h32V55.741c0-11.08-.188-12.377-1.954-13.48-1.106-.691-2.196-.827-2.514-.312-.732 1.183-15.682 1.075-17.193-.125-.722-.573-1.406-.525-1.809.127-.851 1.377-5.829 1.35-7.217-.038-.783-.783-1.275-.783-1.759 0-.37.598-2.13 1.087-3.913 1.087s-3.73-.489-4.328-1.087c-.783-.783-1.275-.783-1.759 0-.822 1.33-5.796 1.438-7.104.154-.589-.578-1.615-.441-2.7.361M15 53c0 .556 2.667 1 6 1s6-.444 6-1-2.667-1-6-1-6 .444-6 1m0 11.55v8.55l5.75-.3 5.75-.3.29-8.25.291-8.25H15v8.55m8 .009c0 1.451.433 2.292 1 1.941.55-.34 1-1.491 1-2.559S24.55 62 24 62s-1 1.152-1 2.559M7 70.893C7 71.89 9.413 73 11.582 73c.78 0 1.418-.675 1.418-1.5 0-1-1-1.5-3-1.5-1.65 0-3 .402-3 .893m22 .633c0 1.313 2.116 1.488 15.168 1.25 11.043-.201 15.281-.616 15.583-1.526.321-.964-3.146-1.25-15.168-1.25C31.28 70 29 70.223 29 71.526" fill-rule="evenodd"/></svg><svg viewBox="0 0 71 75" id="icon3" xmlns="http://www.w3.org/2000/svg"><path d="M29.827 2.74C22.818 8.513 5.463 24.327 4.696 25.64 3.545 27.609 4.73 29 7.559 29H10v17c0 16.279-.084 17-1.981 17-1.267 0-2.202.881-2.594 2.443-.373 1.487-1.457 2.563-2.769 2.75-1.623.231-2.234 1.113-2.47 3.57l-.315 3.262 35.815-.262L71.5 74.5l.282-3.5c.212-2.632.03-3.128-.735-2-.684 1.009-1.021 1.091-1.032.25-.008-.687-1.14-1.25-2.515-1.25-1.871 0-2.5-.527-2.5-2.094 0-1.252-.803-2.303-2-2.616-1.9-.497-2-1.364-2-17.407V29h2.5c5.311 0 2.732-3.681-11.517-16.445C42.256 3.843 37.23 0 35.56 0c-1.324 0-3.904 1.233-5.733 2.74m-9.456 11.51C7.829 25.417 6.851 26.528 9.306 26.816l2.694.317V63h6V46c0-14.444-.225-17-1.5-17-.825 0-1.5-.442-1.5-.983 0-.609 9.321-1.084 24.545-1.25L64.09 26.5 52.361 16C40.969 5.802 36.227 2.02 34.814 2.007c-.377-.004-6.877 5.505-14.443 12.243M5.035 10.934C3.712 13.406 3.688 19 5 19c.55 0 1-1.26 1-2.8 0-1.54.54-3.34 1.2-4 .66-.66 2.46-1.2 4-1.2s2.8-.45 2.8-1-1.784-1-3.965-1c-2.896 0-4.244.521-5 1.934M56 9.94c0 .516 1.688 1.079 3.75 1.25 3.546.293 3.767.514 4.06 4.06.171 2.063.734 3.75 1.25 3.75 1.37 0 1.152-7.388-.26-8.8-1.412-1.412-8.8-1.63-8.8-.26M31.2 12.2c-1.699 1.699-1.488 6.369.371 8.229 3.338 3.337 9.429.633 9.429-4.186 0-4.351-6.72-7.123-9.8-4.043m1.184 2.242c-.971 2.529.071 5.049 2.214 5.356 2.678.385 4.75-2.127 3.917-4.75-.762-2.403-5.27-2.849-6.131-.606M21 30.5c0 1.256 2.111 1.5 13 1.5 8 0 13 .385 13 1s-5 1-13 1H21v29h2.433c1.508 0 2.66-.719 3.033-1.892.911-2.872 7.118-3.941 14.409-2.483 2.167.433 3.125 1.2 3.125 2.5 0 1.417.733 1.875 3 1.875h3V29H35.5c-12.222 0-14.5.236-14.5 1.5m31.667-.833c-.367.366-.667 8.016-.667 17V63h6V29h-2.333c-1.284 0-2.634.3-3 .667M4 46.5C4 54.167 4.387 59 5 59s1-4.833 1-12.5S5.613 34 5 34s-1 4.833-1 12.5m60 0c0 7.667.387 12.5 1 12.5s1-4.833 1-12.5S65.613 34 65 34s-1 4.833-1 12.5M29 62c0 .564 2.833 1 6.5 1s6.5-.436 6.5-1c0-.564-2.833-1-6.5-1s-6.5.436-6.5 1M8 67c0 .642 9.833 1 27.5 1S63 67.642 63 67s-9.833-1-27.5-1S8 66.358 8 67M.232 72c0 1.925.206 2.713.457 1.75.252-.963.252-2.537 0-3.5-.251-.963-.457-.175-.457 1.75m2.462-1.361C.722 72.612 6.13 73 35.559 73 63.729 73 68 72.803 68 71.5c0-1.302-4.259-1.5-32.333-1.5-17.784 0-32.621.288-32.973.639" fill-rule="evenodd"/></svg></svg>