<?xml version="1.0" standalone="no"?>
<!DOCTYPE svg PUBLIC "-//W3C//DTD SVG 20010904//EN"
 "http://www.w3.org/TR/2001/REC-SVG-20010904/DTD/svg10.dtd">
<svg version="1.0" xmlns="http://www.w3.org/2000/svg"
 width="519.000000pt" height="519.000000pt" viewBox="0 0 519.000000 519.000000"
 preserveAspectRatio="xMidYMid meet">
<metadata>
Created by potrace 1.14, written by Peter Selinger 2001-2017
</metadata>
<g transform="translate(0.000000,519.000000) scale(0.100000,-0.100000)"
fill="#000000" stroke="none">
<path d="M2790 4937 c0 -3 -21 -85 -46 -183 -25 -99 -47 -183 -48 -189 -11
-66 -132 -523 -137 -517 -3 4 -14 77 -23 162 -10 85 -19 166 -21 180 -4 22
-26 203 -40 315 -3 22 -7 58 -11 80 -3 22 -6 48 -8 58 -1 10 -5 18 -9 18 -9 2
-145 -12 -172 -17 -11 -2 -42 -6 -70 -9 -27 -3 -60 -7 -72 -9 -12 -3 -53 -8
-90 -11 -37 -4 -75 -8 -83 -10 -8 -2 -40 -7 -70 -10 -30 -3 -73 -8 -95 -11
-22 -3 -58 -7 -80 -10 -22 -2 -51 -7 -65 -9 -14 -2 -50 -7 -80 -10 -30 -3 -71
-8 -90 -10 -19 -3 -55 -7 -80 -10 -25 -3 -54 -7 -65 -9 -11 -2 -49 -7 -85 -11
-36 -3 -76 -8 -90 -10 -14 -2 -43 -6 -65 -9 -22 -3 -62 -8 -90 -11 -48 -5
-103 -12 -155 -20 -14 -2 -50 -6 -80 -10 -30 -3 -71 -8 -90 -10 -19 -3 -57 -8
-85 -11 -27 -3 -61 -7 -75 -9 -14 -2 -50 -7 -80 -10 -30 -3 -66 -8 -80 -10
-54 -8 -107 -15 -160 -20 -30 -4 -84 -10 -120 -15 -36 -6 -69 -10 -73 -10 -4
0 -6 -17 -3 -37 3 -21 17 -130 31 -243 32 -261 34 -278 40 -320 3 -19 7 -53
10 -75 2 -22 16 -130 30 -240 13 -110 27 -220 30 -245 3 -25 7 -61 10 -80 3
-19 7 -53 10 -75 2 -22 15 -128 29 -235 14 -107 28 -222 31 -255 3 -33 8 -71
10 -85 7 -36 30 -216 50 -390 7 -60 13 -108 19 -150 3 -19 8 -57 11 -85 3 -27
7 -61 10 -75 2 -14 7 -50 10 -80 3 -30 7 -64 9 -75 2 -11 7 -51 11 -90 4 -38
8 -77 10 -85 1 -8 6 -41 10 -74 3 -32 8 -68 10 -80 2 -11 6 -48 10 -81 3 -33
8 -67 10 -75 2 -8 7 -46 10 -85 4 -38 8 -72 10 -75 2 -3 6 -35 9 -71 4 -36 8
-76 11 -90 2 -13 9 -69 15 -124 6 -55 13 -111 15 -125 9 -59 20 -144 31 -240
8 -77 16 -125 19 -129 3 -2 136 13 297 33 365 46 353 44 413 51 28 4 61 8 75
10 14 2 50 6 80 10 30 4 66 8 80 10 14 2 50 7 80 10 30 3 66 8 80 10 14 2 102
13 195 25 190 23 221 27 285 36 61 8 84 11 160 19 36 4 74 9 85 11 11 2 47 7
80 10 33 4 81 10 107 14 47 7 71 6 118 -4 61 -13 75 -16 104 -25 17 -6 42 -12
56 -15 14 -3 90 -21 170 -41 80 -20 152 -38 160 -40 8 -2 231 -58 495 -125
264 -67 489 -122 499 -123 16 -2 23 12 41 83 36 141 116 460 120 478 2 9 38
150 79 312 176 692 237 936 242 958 2 13 12 49 20 80 8 32 17 64 19 72 2 8 15
62 30 120 15 58 28 112 30 120 2 8 18 71 35 140 18 69 34 135 36 147 2 12 9
34 14 48 5 14 7 25 4 25 -2 0 0 8 5 18 5 9 11 31 14 47 7 38 4 26 77 310 34
132 64 251 66 265 3 14 8 34 11 45 4 11 8 25 9 30 3 13 182 723 190 751 5 19
0 23 -48 34 -57 13 -93 22 -148 39 -19 5 -46 12 -60 15 -14 3 -124 30 -245 61
-121 31 -227 58 -235 60 -73 17 -1624 406 -1642 411 -10 3 -18 3 -18 1z"/>
</g>
</svg>
