<svg xmlns="http://www.w3.org/2000/svg" width="512" height="512"><path d="M297.5 1.584c-23.598 3.645-43.679 13.45-59.072 28.844-15.448 15.447-24.717 34.33-30.056 61.231-1.218 6.138-1.666 17.888-2.063 54.091l-.507 46.25H132v91h74v229h92V283H368.909l.564-3.25c.76-4.375 10.527-84.44 10.527-86.289 0-1.257-5.715-1.461-41-1.461h-41v-36.951c0-23.55.408-38.872 1.124-42.25 2.642-12.45 9.911-20.809 21.596-24.832 6.388-2.2 8.527-2.358 37.03-2.748l30.25-.414V3.235l-7.25-.646c-32.208-2.87-68.352-3.306-83.25-1.005" fill="black" fill-rule="evenodd"/></svg>