<svg xmlns="http://www.w3.org/2000/svg" width="512" height="512"><path d="M10.5 18.417c-3.727 1.664-8.031 6.179-9.436 9.898-1.495 3.956-1.497 451.406-.003 455.37 1.517 4.023 6.726 9.09 10.692 10.398 5.075 1.676 11.577.311 16.528-3.468 2.349-1.793 42.96-34.682 90.245-73.087l85.974-69.827.5 67.899.5 67.9 2.288 3.679c3.213 5.167 9.884 8.275 15.972 7.44 2.536-.347 5.539-1.243 6.675-1.99 1.136-.747 63.94-51.596 139.565-112.998 109.947-89.269 137.95-112.47 139.746-115.784l2.245-4.145.259 110.899c.142 60.994.259 8.974.259-115.601s-.117-176.145-.259-114.601l-.259 111.899-2.245-4.141c-1.794-3.308-29.828-26.54-139.253-115.399C295.139 71.566 232.255 20.704 230.751 19.732c-1.505-.973-4.73-2.042-7.168-2.376-5.9-.808-12.628 2.371-15.795 7.465L205.5 28.5l-.5 67.881-.5 67.882-89-72.277C66.55 52.234 25.052 19.1 23.282 18.355c-4.032-1.698-8.892-1.674-12.782.062M.491 256c0 124.575.117 175.538.259 113.25.142-62.287.142-164.212 0-226.5C.608 80.463.491 131.425.491 256M34 256c0 114.669.357 185.04.937 184.833C36.623 440.233 262 256.773 262 256c0-.773-225.377-184.233-227.063-184.833C34.357 70.96 34 141.331 34 256m205.02-124.333l.02 60.833 32.366 26.25C305.631 246.508 307 247.94 307 256c0 8.06-1.369 9.492-35.594 37.25L239.04 319.5l-.02 60.833c-.011 34.401.361 60.689.856 60.5C241.397 440.254 467 256.659 467 256c0-.659-225.603-184.254-227.124-184.833-.495-.189-.867 26.099-.856 60.5" fill="black" fill-rule="evenodd"/></svg>