<svg xmlns="http://www.w3.org/2000/svg" width="512" height="512"><path d="M479 30.366c-4.675 1.871-111.1 44.23-236.5 94.132-125.4 49.902-229.631 91.56-231.624 92.573C4.207 220.46.004 227.591.015 235.5c.008 5.15 4.406 13.109 8.764 15.86 2.159 1.363 31.774 13.122 65.81 26.13 34.037 13.008 61.967 23.732 62.066 23.832.1.099 7.881 29.43 17.292 65.179 9.411 35.75 17.849 66.702 18.75 68.784 3.472 8.022 13.3 13.688 21.178 12.211 5.551-1.042 7.318-2.189 43.281-28.094C255.788 405.981 271.502 395 272.076 395c.574 0 29.577 19.366 64.452 43.035 34.875 23.669 65.335 43.909 67.69 44.978 12.585 5.711 25.023-1.533 28.266-16.462C437.107 445.266 512 49.248 512 46.086c0-5.219-3.696-11.704-8.764-15.375-6.443-4.667-13.192-4.763-24.236-.345M239.605 169.511c-89.042 35.445-162.064 64.615-162.272 64.823-.207.207 12.345 5.234 27.895 11.17 63.208 24.13 62.908 23.992 66.316 30.581.81 1.566 3.295 9.725 5.523 18.131 2.228 8.406 4.743 17.754 5.589 20.772l1.538 5.488 1.351-3.929c1.661-4.832-3.831.592 113.455-112.05 107.761-103.494 103.633-99.508 102.987-99.464-.268.018-73.34 29.033-162.382 64.478m107.895 44.64c-60.5 58.297-110.094 106.3-110.21 106.672-.115.373 35.878 25.11 79.985 54.973 75.235 50.939 80.24 54.155 80.932 52C399.004 425.32 459 110.723 459 109.024c0-.563-.337-.989-.75-.947-.413.043-50.25 47.776-110.75 106.074M189 338.479c0 1.254 14.019 53.874 14.475 54.329.379.38 7.036-4.267 27.338-19.086l5.312-3.877-21.609-14.673c-11.885-8.069-22.488-15.289-23.563-16.044-1.074-.755-1.953-1.046-1.953-.649" fill="black" fill-rule="evenodd"/></svg>