<svg xmlns="http://www.w3.org/2000/svg" width="512" height="512"><path d="M228.5.646c-11.784.939-37.91 4.588-49.482 6.911-33.679 6.762-61.901 17.598-84 32.254-26.668 17.685-46.733 50.336-56.651 92.185C26.901 180.379 26.077 265.227 36.61 313c8.025 36.4 21.931 63.671 43.345 85.006 15.528 15.471 34.325 27.053 54.645 33.671l8.298 2.702.301 31.561.301 31.56 2.9 5.233c4.622 8.341 13.508 11.407 22.382 7.724 4.947-2.054 22.951-20.661 41.191-42.571l14.474-17.386 39.526-.028c41.446-.03 49.096-.568 79.027-5.563 24.659-4.114 55.936-13.335 71.104-20.961C459.12 401.314 486.108 358.72 493.908 298c5.992-46.655 6.404-98.278 1.086-136.222-7.86-56.08-27.871-97.287-57.994-119.424C410.218 22.673 367.842 8.95 313.5 2.36 301.061.851 241.101-.357 228.5.646m6.5 35.98c-59.428 4.211-106.566 20.562-130.188 45.159-29.69 30.914-41.225 78.713-39.509 163.715.626 30.988 2.046 44.224 6.814 63.485 11.175 45.148 36.165 74.585 75.129 88.499l9.254 3.304.188 45.68c.139 33.472.505 46.06 1.373 47.105 2.479 2.988 5.558 1.561 12.562-5.823 5.841-6.158 27.714-32.238 55.032-65.617l6.848-8.366 28.998-.229c39.957-.316 64.677-3.242 97.733-11.567 19.644-4.948 26.073-7.095 36.683-12.254 32.802-15.951 53.75-47.266 61.516-91.961 4.084-23.503 6.367-72.829 4.64-100.256-3.825-60.774-18.457-101.896-43.713-122.86C397.031 56.936 358.541 44.306 308 38.428c-12.883-1.499-60.642-2.677-73-1.802m20.956 56.927c-.709.855-1.289 2.95-1.289 4.656 0 4.732 3.239 6.79 10.694 6.795 14.206.009 35.165 5.201 48.862 12.103 37.729 19.013 59.535 55.363 62.625 104.395.86 13.647 1.651 15.498 6.619 15.498 6.602 0 7.849-5.666 5.509-25.026-4.976-41.16-21.464-72.604-49.388-94.185-10.362-8.008-29.203-17.652-40.588-20.774-17.624-4.834-40.386-6.665-43.044-3.462m-85.112 13.841c-7.195 2.57-13.483 7.059-22.431 16.013-10.878 10.885-14.446 17.327-15.166 27.383-.472 6.597-.34 7.045 7.745 26.19 34.042 80.622 68.555 121.375 135.945 160.526 16.648 9.671 38.968 20.497 49.563 24.038 9.338 3.122 14.618 2.922 22.89-.865 6.334-2.9 17.238-12.883 23.082-21.132 12.881-18.181 12.518-26.163-1.754-38.601-15.836-13.802-38.322-28.954-46.06-31.038-8.881-2.391-14.634.53-23.735 12.052-9.322 11.801-13.519 13.229-26.169 8.9-31.378-10.738-58.344-39.09-71.194-74.852-4.254-11.842-2.727-16.302 8.833-25.79 9.121-7.486 11.607-11.79 11.607-20.095 0-7.06-2.919-13.219-14.512-30.623-11.105-16.671-21.203-28.6-26.453-31.25-5.073-2.56-7.035-2.698-12.191-.856m96.644 19.619c-2.359 2.607-2.37 7.869-.02 9.588.991.724 3.879 1.58 6.417 1.902 29.703 3.768 50.746 16.905 61.587 38.447 5.338 10.606 7.648 19.371 8.262 31.348.628 12.238 2.212 15.702 7.184 15.702 5.379 0 6.432-2.659 5.834-14.736-2.178-43.972-30.138-75.178-74.133-82.738-11.494-1.975-12.945-1.928-15.131.487m9.162 35.077c-.908 1.295-1.65 3.294-1.65 4.441 0 4 2.297 5.575 10.107 6.932 9.397 1.631 14.659 4.278 19.31 9.711 3.882 4.535 7.583 14.539 7.583 20.497 0 8.212 6.144 12.185 11.131 7.198 1.91-1.91 2.065-2.845 1.493-9.001-2.243-24.143-17.089-39.682-39.723-41.58-6.115-.512-6.724-.379-8.251 1.802" fill="black" fill-rule="evenodd"/></svg>