<svg xmlns="http://www.w3.org/2000/svg" width="512" height="512"><path d="M7.424 108.895c-9.899 4.496-9.756 16.12.58 47.169C29.525 220.709 84.67 310.103 126.5 348.156c30.623 27.858 64.75 46.226 100.131 53.893 12.308 2.667 42.345 3.81 52.978 2.017 7.867-1.327 13.728-4.253 16.797-8.386 2-2.693 2.118-4.332 2.639-36.5.608-37.494.967-39.7 6.864-42.142 4.893-2.027 14.829-.823 22.287 2.702 15.085 7.129 35.86 24.937 63.317 54.274 20.754 22.175 24.77 25.852 31.635 28.967 4.072 1.848 6.668 1.976 40.39 1.997 35.406.022 36.116-.017 40.5-2.228 20.157-10.164 3.086-40.439-58.317-103.427-11.701-12.003-22.329-23.539-23.619-25.637-1.877-3.054-2.251-4.786-1.875-8.697.388-4.032 1.708-6.675 7.588-15.186C486.112 165.432 506.784 126.697 500.29 114c-3.506-6.856-4.428-6.999-44.79-6.976-32.811.018-36.359.183-40.056 1.862-6.116 2.778-10.338 8.551-16.824 23.003-22.114 49.277-57.445 100.812-78.967 115.184-5.14 3.432-6.676 3.978-10.487 3.724-5.312-.353-7.929-3.17-9.237-9.939-.463-2.397-.887-30.908-.942-63.358-.073-42.878-.426-59.947-1.293-62.465-.682-1.98-2.65-4.445-4.592-5.75L289.704 107l-49.602.004c-47.75.003-49.724.078-52.865 1.993-4.292 2.617-6.704 7.698-5.841 12.302.386 2.054 3.417 7.203 7.278 12.361 3.639 4.862 7.722 11.315 9.074 14.34 5.072 11.356 5.344 15.126 5.037 69.897-.319 56.668-.149 55.33-7.175 56.648-5.641 1.059-11.953-2.507-21.07-11.905-23.18-23.89-51.409-74.152-70.563-125.64-5.248-14.106-9.033-21.807-12.14-24.702-5.472-5.098-7.193-5.3-45.055-5.276-32.174.02-35.641.185-39.358 1.873" fill="black" fill-rule="evenodd"/></svg>