<svg viewBox="0 0 512 512" xmlns="http://www.w3.org/2000/svg" xmlns:xlink="http://www.w3.org/1999/xlink"><style>:root&gt;svg{display:none}:root&gt;svg:target{display:block}</style><svg viewBox="0 0 512 512" id="facebook" xmlns="http://www.w3.org/2000/svg"><path d="M297.5 1.584c-23.598 3.645-43.679 13.45-59.072 28.844-15.448 15.447-24.717 34.33-30.056 61.231-1.218 6.138-1.666 17.888-2.063 54.091l-.507 46.25H132v91h74v229h92V283h70.909l.564-3.25c.76-4.375 10.527-84.44 10.527-86.289 0-1.257-5.715-1.461-41-1.461h-41v-36.951c0-23.55.408-38.872 1.124-42.25 2.642-12.45 9.911-20.809 21.596-24.832 6.388-2.2 8.527-2.358 37.03-2.748l30.25-.414V3.235l-7.25-.646c-32.208-2.87-68.352-3.306-83.25-1.005" fill-rule="evenodd"/></svg><svg viewBox="0 0 512 512" id="fast-forward" xmlns="http://www.w3.org/2000/svg"><path d="M10.5 18.417c-3.727 1.664-8.031 6.179-9.436 9.898-1.495 3.956-1.497 451.406-.003 455.37 1.517 4.023 6.726 9.09 10.692 10.398 5.075 1.676 11.577.311 16.528-3.468 2.349-1.793 42.96-34.682 90.245-73.087l85.974-69.827.5 67.899.5 67.9 2.288 3.679c3.213 5.167 9.884 8.275 15.972 7.44 2.536-.347 5.539-1.243 6.675-1.99 1.136-.747 63.94-51.596 139.565-112.998 109.947-89.269 137.95-112.47 139.746-115.784l2.245-4.145.259 110.899c.142 60.994.259 8.974.259-115.601s-.117-176.145-.259-114.601l-.259 111.899-2.245-4.141c-1.794-3.308-29.828-26.54-139.253-115.399C295.139 71.566 232.255 20.704 230.751 19.732c-1.505-.973-4.73-2.042-7.168-2.376-5.9-.808-12.628 2.371-15.795 7.465L205.5 28.5l-.5 67.881-.5 67.882-89-72.277C66.55 52.234 25.052 19.1 23.282 18.355c-4.032-1.698-8.892-1.674-12.782.062M.491 256c0 124.575.117 175.538.259 113.25.142-62.287.142-164.212 0-226.5C.608 80.463.491 131.425.491 256M34 256c0 114.669.357 185.04.937 184.833C36.623 440.233 262 256.773 262 256c0-.773-225.377-184.233-227.063-184.833C34.357 70.96 34 141.331 34 256m205.02-124.333l.02 60.833 32.366 26.25C305.631 246.508 307 247.94 307 256c0 8.06-1.369 9.492-35.594 37.25L239.04 319.5l-.02 60.833c-.011 34.401.361 60.689.856 60.5C241.397 440.254 467 256.659 467 256c0-.659-225.603-184.254-227.124-184.833-.495-.189-.867 26.099-.856 60.5" fill-rule="evenodd"/></svg><svg viewBox="0 0 20 20" id="instagram" xmlns="http://www.w3.org/2000/svg"><path d="M0 6.25v7.5A6.25 6.25 0 006.25 20h7.5A6.25 6.25 0 0020 13.75v-7.5A6.25 6.25 0 0013.75 0h-7.5A6.25 6.25 0 000 6.25zm13.75-4.375a4.38 4.38 0 014.375 4.375v7.5a4.38 4.38 0 01-4.375 4.375h-7.5a4.38 4.38 0 01-4.375-4.375v-7.5A4.38 4.38 0 016.25 1.875h7.5z"/><path d="M5 10a5 5 0 1010 0 5 5 0 00-10 0zm8.125 0A3.13 3.13 0 0110 13.125 3.129 3.129 0 016.875 10 3.129 3.129 0 0110 6.875 3.13 3.13 0 0113.125 10zM5.291 4.625a.666.666 0 10-1.332 0 .666.666 0 001.332 0z"/></svg><svg viewBox="0 0 512 512" id="telegram" xmlns="http://www.w3.org/2000/svg"><path d="M479 30.366c-4.675 1.871-111.1 44.23-236.5 94.132-125.4 49.902-229.631 91.56-231.624 92.573C4.207 220.46.004 227.591.015 235.5c.008 5.15 4.406 13.109 8.764 15.86 2.159 1.363 31.774 13.122 65.81 26.13 34.037 13.008 61.967 23.732 62.066 23.832.1.099 7.881 29.43 17.292 65.179 9.411 35.75 17.849 66.702 18.75 68.784 3.472 8.022 13.3 13.688 21.178 12.211 5.551-1.042 7.318-2.189 43.281-28.094C255.788 405.981 271.502 395 272.076 395c.574 0 29.577 19.366 64.452 43.035 34.875 23.669 65.335 43.909 67.69 44.978 12.585 5.711 25.023-1.533 28.266-16.462C437.107 445.266 512 49.248 512 46.086c0-5.219-3.696-11.704-8.764-15.375-6.443-4.667-13.192-4.763-24.236-.345M239.605 169.511c-89.042 35.445-162.064 64.615-162.272 64.823-.207.207 12.345 5.234 27.895 11.17 63.208 24.13 62.908 23.992 66.316 30.581.81 1.566 3.295 9.725 5.523 18.131 2.228 8.406 4.743 17.754 5.589 20.772l1.538 5.488 1.351-3.929c1.661-4.832-3.831.592 113.455-112.05 107.761-103.494 103.633-99.508 102.987-99.464-.268.018-73.34 29.033-162.382 64.478m107.895 44.64c-60.5 58.297-110.094 106.3-110.21 106.672-.115.373 35.878 25.11 79.985 54.973 75.235 50.939 80.24 54.155 80.932 52C399.004 425.32 459 110.723 459 109.024c0-.563-.337-.989-.75-.947-.413.043-50.25 47.776-110.75 106.074M189 338.479c0 1.254 14.019 53.874 14.475 54.329.379.38 7.036-4.267 27.338-19.086l5.312-3.877-21.609-14.673c-11.885-8.069-22.488-15.289-23.563-16.044-1.074-.755-1.953-1.046-1.953-.649" fill-rule="evenodd"/></svg><svg viewBox="0 0 512 512" id="viber" xmlns="http://www.w3.org/2000/svg"><path d="M228.5.646c-11.784.939-37.91 4.588-49.482 6.911-33.679 6.762-61.901 17.598-84 32.254-26.668 17.685-46.733 50.336-56.651 92.185C26.901 180.379 26.077 265.227 36.61 313c8.025 36.4 21.931 63.671 43.345 85.006 15.528 15.471 34.325 27.053 54.645 33.671l8.298 2.702.301 31.561.301 31.56 2.9 5.233c4.622 8.341 13.508 11.407 22.382 7.724 4.947-2.054 22.951-20.661 41.191-42.571l14.474-17.386 39.526-.028c41.446-.03 49.096-.568 79.027-5.563 24.659-4.114 55.936-13.335 71.104-20.961C459.12 401.314 486.108 358.72 493.908 298c5.992-46.655 6.404-98.278 1.086-136.222-7.86-56.08-27.871-97.287-57.994-119.424C410.218 22.673 367.842 8.95 313.5 2.36 301.061.851 241.101-.357 228.5.646m6.5 35.98c-59.428 4.211-106.566 20.562-130.188 45.159-29.69 30.914-41.225 78.713-39.509 163.715.626 30.988 2.046 44.224 6.814 63.485 11.175 45.148 36.165 74.585 75.129 88.499l9.254 3.304.188 45.68c.139 33.472.505 46.06 1.373 47.105 2.479 2.988 5.558 1.561 12.562-5.823 5.841-6.158 27.714-32.238 55.032-65.617l6.848-8.366 28.998-.229c39.957-.316 64.677-3.242 97.733-11.567 19.644-4.948 26.073-7.095 36.683-12.254 32.802-15.951 53.75-47.266 61.516-91.961 4.084-23.503 6.367-72.829 4.64-100.256-3.825-60.774-18.457-101.896-43.713-122.86C397.031 56.936 358.541 44.306 308 38.428c-12.883-1.499-60.642-2.677-73-1.802m20.956 56.927c-.709.855-1.289 2.95-1.289 4.656 0 4.732 3.239 6.79 10.694 6.795 14.206.009 35.165 5.201 48.862 12.103 37.729 19.013 59.535 55.363 62.625 104.395.86 13.647 1.651 15.498 6.619 15.498 6.602 0 7.849-5.666 5.509-25.026-4.976-41.16-21.464-72.604-49.388-94.185-10.362-8.008-29.203-17.652-40.588-20.774-17.624-4.834-40.386-6.665-43.044-3.462m-85.112 13.841c-7.195 2.57-13.483 7.059-22.431 16.013-10.878 10.885-14.446 17.327-15.166 27.383-.472 6.597-.34 7.045 7.745 26.19 34.042 80.622 68.555 121.375 135.945 160.526 16.648 9.671 38.968 20.497 49.563 24.038 9.338 3.122 14.618 2.922 22.89-.865 6.334-2.9 17.238-12.883 23.082-21.132 12.881-18.181 12.518-26.163-1.754-38.601-15.836-13.802-38.322-28.954-46.06-31.038-8.881-2.391-14.634.53-23.735 12.052-9.322 11.801-13.519 13.229-26.169 8.9-31.378-10.738-58.344-39.09-71.194-74.852-4.254-11.842-2.727-16.302 8.833-25.79 9.121-7.486 11.607-11.79 11.607-20.095 0-7.06-2.919-13.219-14.512-30.623-11.105-16.671-21.203-28.6-26.453-31.25-5.073-2.56-7.035-2.698-12.191-.856m96.644 19.619c-2.359 2.607-2.37 7.869-.02 9.588.991.724 3.879 1.58 6.417 1.902 29.703 3.768 50.746 16.905 61.587 38.447 5.338 10.606 7.648 19.371 8.262 31.348.628 12.238 2.212 15.702 7.184 15.702 5.379 0 6.432-2.659 5.834-14.736-2.178-43.972-30.138-75.178-74.133-82.738-11.494-1.975-12.945-1.928-15.131.487m9.162 35.077c-.908 1.295-1.65 3.294-1.65 4.441 0 4 2.297 5.575 10.107 6.932 9.397 1.631 14.659 4.278 19.31 9.711 3.882 4.535 7.583 14.539 7.583 20.497 0 8.212 6.144 12.185 11.131 7.198 1.91-1.91 2.065-2.845 1.493-9.001-2.243-24.143-17.089-39.682-39.723-41.58-6.115-.512-6.724-.379-8.251 1.802" fill-rule="evenodd"/></svg><svg viewBox="0 0 512 512" id="vk" xmlns="http://www.w3.org/2000/svg"><path d="M7.424 108.895c-9.899 4.496-9.756 16.12.58 47.169C29.525 220.709 84.67 310.103 126.5 348.156c30.623 27.858 64.75 46.226 100.131 53.893 12.308 2.667 42.345 3.81 52.978 2.017 7.867-1.327 13.728-4.253 16.797-8.386 2-2.693 2.118-4.332 2.639-36.5.608-37.494.967-39.7 6.864-42.142 4.893-2.027 14.829-.823 22.287 2.702 15.085 7.129 35.86 24.937 63.317 54.274 20.754 22.175 24.77 25.852 31.635 28.967 4.072 1.848 6.668 1.976 40.39 1.997 35.406.022 36.116-.017 40.5-2.228 20.157-10.164 3.086-40.439-58.317-103.427-11.701-12.003-22.329-23.539-23.619-25.637-1.877-3.054-2.251-4.786-1.875-8.697.388-4.032 1.708-6.675 7.588-15.186C486.112 165.432 506.784 126.697 500.29 114c-3.506-6.856-4.428-6.999-44.79-6.976-32.811.018-36.359.183-40.056 1.862-6.116 2.778-10.338 8.551-16.824 23.003-22.114 49.277-57.445 100.812-78.967 115.184-5.14 3.432-6.676 3.978-10.487 3.724-5.312-.353-7.929-3.17-9.237-9.939-.463-2.397-.887-30.908-.942-63.358-.073-42.878-.426-59.947-1.293-62.465-.682-1.98-2.65-4.445-4.592-5.75L289.704 107l-49.602.004c-47.75.003-49.724.078-52.865 1.993-4.292 2.617-6.704 7.698-5.841 12.302.386 2.054 3.417 7.203 7.278 12.361 3.639 4.862 7.722 11.315 9.074 14.34 5.072 11.356 5.344 15.126 5.037 69.897-.319 56.668-.149 55.33-7.175 56.648-5.641 1.059-11.953-2.507-21.07-11.905-23.18-23.89-51.409-74.152-70.563-125.64-5.248-14.106-9.033-21.807-12.14-24.702-5.472-5.098-7.193-5.3-45.055-5.276-32.174.02-35.641.185-39.358 1.873" fill-rule="evenodd"/></svg></svg>