<?xml version="1.0" standalone="no"?>
<!DOCTYPE svg PUBLIC "-//W3C//DTD SVG 20010904//EN"
 "http://www.w3.org/TR/2001/REC-SVG-20010904/DTD/svg10.dtd">
<svg version="1.0" xmlns="http://www.w3.org/2000/svg"
 width="254.000000pt" height="254.000000pt" viewBox="0 0 254.000000 254.000000"
 preserveAspectRatio="xMidYMid meet">
<metadata>
Created by potrace 1.14, written by Peter Selinger 2001-2017
</metadata>
<g transform="translate(0.000000,254.000000) scale(0.100000,-0.100000)"
fill="#000000" stroke="none">
<path d="M2129 2229 c-13 -12 -40 -33 -59 -48 -19 -14 -37 -28 -40 -31 -20
-20 -201 -160 -207 -160 -4 0 -26 16 -48 35 -105 92 -269 148 -435 148 -114 1
-135 -2 -225 -28 -263 -77 -484 -301 -580 -589 -34 -102 -40 -126 -55 -226
-13 -84 -9 -319 6 -406 69 -394 331 -660 722 -730 79 -14 229 -19 292 -10 118
17 226 72 316 161 80 80 113 134 139 228 23 85 16 149 -24 231 -27 56 -108
146 -130 146 -4 0 -7 -26 -7 -58 -2 -252 -109 -465 -271 -539 -63 -29 -162
-37 -231 -18 -294 77 -478 498 -429 977 34 331 182 575 394 650 121 42 283 18
393 -59 75 -54 88 -75 95 -163 11 -145 18 -225 20 -250 2 -14 4 -36 4 -50 2
-20 8 -12 30 35 16 33 46 98 68 145 22 47 54 114 71 150 16 36 62 135 102 220
97 207 120 260 116 260 -1 0 -14 -10 -27 -21z"/>
</g>
</svg>
