<svg viewBox="0 0 512 512" xmlns="http://www.w3.org/2000/svg" xmlns:xlink="http://www.w3.org/1999/xlink"><style>:root&gt;svg{display:none}:root&gt;svg:target{display:block}</style><svg viewBox="0 0 512 512" id="018-whatsapp" xmlns="http://www.w3.org/2000/svg"><path d="M234.5 16.673c-32.603 4.055-55.02 10.576-82 23.854C80.957 75.734 31.449 145.02 21.464 223.91c-2.366 18.696-1.64 52.348 1.512 70.09 4.171 23.476 12.855 49.27 23.254 69.075l5.028 9.574-16.659 60.835c-9.163 33.46-16.533 61.146-16.379 61.526.154.38 28.398-6.688 62.763-15.705l62.484-16.396 10.516 4.975c52.822 24.986 106.543 30.302 163.153 16.144 59.17-14.798 112.655-55.18 145.266-109.677 16.391-27.392 27.937-61.858 31.607-94.351 1.571-13.908 1.307-42.544-.521-56.46-6.281-47.808-24.889-89.272-56.566-126.04-38.871-45.117-94.407-74.11-154.133-80.467-9.035-.961-41.508-1.204-48.289-.36m3 40.425C144.42 66.777 70.704 140.669 61.02 234c-4.414 42.541 5.788 86.314 29.017 124.5l4.867 8-9.889 35.98c-5.439 19.789-9.786 36.083-9.66 36.208.126.126 16.41-4.022 36.187-9.218 19.777-5.196 36.549-9.452 37.271-9.458.723-.007 6.123 2.671 12 5.951 19.098 10.657 41.503 18.643 63.187 22.522 12.662 2.265 41.698 3.102 55.045 1.587 91.455-10.378 163.676-82.017 174.473-173.066 11.08-93.43-45.034-181.666-134.137-210.922C293 57.423 264.479 54.293 237.5 57.098m-73.309 89.036c-8.281 4.099-20.324 20.342-24.356 32.851-2.919 9.054-3.636 27.923-1.42 37.378 3.603 15.375 10.978 29.941 25.128 49.637 11.58 16.117 22.361 28.697 35.588 41.527 29.16 28.285 53.088 42.685 91.869 55.285 16.076 5.224 29.241 6.502 42.566 4.133 9.983-1.774 23.791-9.273 32.053-17.406 6.295-6.197 7.415-7.876 9.367-14.039 1.27-4.012 2.442-10.907 2.746-16.155l.531-9.154-3.882-2.395c-6.125-3.78-47.477-23.506-51.607-24.618-2.049-.552-4.631-.767-5.737-.477-1.106.289-5.811 5.312-10.455 11.162-14.599 18.389-15.786 19.556-19.783 19.443-4.846-.138-24.955-9.872-37.112-17.966-17.282-11.504-36.798-32.147-48.065-50.84-1.989-3.3-3.618-6.971-3.619-8.158-.002-1.187 2.004-4.622 4.457-7.634 9.513-11.678 15.54-20.9 15.54-23.778 0-1.573-4.328-13.338-9.618-26.145-11.28-27.308-11.814-28.433-15.183-32.035-2.507-2.679-2.857-2.75-13.636-2.749-9.278 0-11.758.345-15.372 2.133" fill-rule="evenodd"/></svg><svg viewBox="0 0 512 512" id="019-instagram-1" xmlns="http://www.w3.org/2000/svg"><path d="M164.5 1.033c-33.36 1.058-50.76 3.668-70.908 10.634-20.17 6.974-36.723 17.581-51.895 33.256C18.825 68.55 7.956 93.984 2.348 137 .978 147.508.647 164.078.271 241c-.452 92.584.145 118.565 3.226 140.5 5.266 37.492 16.345 62.611 37.357 84.698 27.229 28.622 59.327 41.156 114.629 44.76 19.906 1.298 152.922 1.329 188.019.045 38.534-1.41 59.3-4.649 79.284-12.367 11.806-4.56 17.157-7.348 27.93-14.554 26.537-17.75 45.887-47.189 54.359-82.699 3.45-14.462 4.988-28.425 5.714-51.883.555-17.944.835-21.131 1.275-14.5.31 4.675.556-32.225.547-82-.009-49.775-.263-84.875-.564-78-.517 11.826-.585 11.205-1.252-11.5-.388-13.2-1.406-28.725-2.261-34.499C497.63 55.38 455.941 13.706 383 3.513c-6.325-.883-23.65-2.021-38.5-2.527-30.539-1.042-146.656-1.011-180 .047m-14 46.026c-60.257 3.516-90.447 27.324-100.389 79.169-4.344 22.651-4.611 30.396-4.602 133.272.008 87.375.197 99.364 1.74 110.583 4.538 32.986 12.577 51.015 30.174 67.672 16.015 15.16 30.225 20.524 68.077 25.698 8.991 1.229 145.68 2.37 181 1.511 39.275-.956 53.354-2.269 69.176-6.451 32.738-8.655 54.661-30.737 62.947-63.401 5.687-22.417 7.331-52 7.344-132.112.01-63.761-1.37-114.168-3.528-128.893-2.891-19.718-7.535-33.432-15.344-45.316-17.156-26.106-44.702-38.199-95.095-41.75-16.596-1.169-181.406-1.154-201.5.018m228.812 44.907c-10.662 5.39-16.335 13.877-17.069 25.534-.597 9.487 2.146 16.794 8.805 23.452 19.101 19.102 51.948 5.809 51.951-21.024.001-8.519-2.179-14.714-7.173-20.388-6.55-7.442-11.677-9.874-21.756-10.322-7.997-.355-8.983-.172-14.758 2.748M244 125.041c-30.284 2.912-57.101 15.308-78.922 36.482-26.645 25.855-40.062 57.511-40.074 94.551-.009 27.17 7.208 50.9 22.482 73.926 6.395 9.642 24.872 28.119 34.514 34.514 22.807 15.129 46.999 22.491 73.881 22.482 35.531-.011 65.942-12.247 91.196-36.693 20.081-19.437 32.629-42.439 38.08-69.803 2.735-13.73 2.74-35.202.013-49.039-10.678-54.168-52.54-95.508-106.17-104.844-11.346-1.975-24.625-2.573-35-1.576M.479 254c0 49.775.122 70.138.271 45.25.149-24.887.149-65.612 0-90.5C.601 183.863.479 204.225.479 254M238.5 172.657c-25.779 5.5-47.052 22.173-58.492 45.843-5.853 12.111-7.928 19.909-8.705 32.712-3.074 50.646 39.345 92.768 90.102 89.473 12.271-.797 20.2-2.944 32.095-8.693 58.807-28.421 64.16-110.323 9.595-146.821-18.57-12.421-42.92-17.139-64.595-12.514" fill-rule="evenodd"/></svg><svg viewBox="0 0 512 512" id="2-facebook" xmlns="http://www.w3.org/2000/svg"><path d="M297.5 1.584c-23.598 3.645-43.679 13.45-59.072 28.844-15.448 15.447-24.717 34.33-30.056 61.231-1.218 6.138-1.666 17.888-2.063 54.091l-.507 46.25H132v91h74v229h92V283h70.909l.564-3.25c.76-4.375 10.527-84.44 10.527-86.289 0-1.257-5.715-1.461-41-1.461h-41v-36.951c0-23.55.408-38.872 1.124-42.25 2.642-12.45 9.911-20.809 21.596-24.832 6.388-2.2 8.527-2.358 37.03-2.748l30.25-.414V3.235l-7.25-.646c-32.208-2.87-68.352-3.306-83.25-1.005" fill-rule="evenodd"/></svg><svg viewBox="0 0 512 512" id="3-twitter" xmlns="http://www.w3.org/2000/svg"><path d="M331.334 59.481c-37.383 6.783-66.772 33.189-77.929 70.019-2.454 8.102-2.735 10.596-2.816 25-.049 8.8.258 17.941.683 20.313l.772 4.312-7.272-.649c-29.165-2.605-59.681-9.876-84.772-20.198-24.097-9.913-53.837-27.961-73.5-44.602-9.846-8.333-26.567-24.958-33.773-33.579l-3.68-4.403-3.484 7.403c-1.916 4.072-4.705 11.453-6.198 16.403-2.462 8.159-2.722 10.542-2.784 25.5-.082 19.668 1.619 27.565 9.371 43.5 6.97 14.329 17.211 26.927 29.548 36.347l3 2.29-7.121-.563c-8.723-.691-22.441-4.567-30.426-8.598L35 194.971v3.942c0 7.601 2.176 19.672 5.197 28.827 9.547 28.934 32.288 51.812 61.471 61.843 5.236 1.799 9.732 3.484 9.991 3.743 1.376 1.376-15.456 2.873-27.848 2.478-8.073-.258-13.811-.058-13.811.48 0 2.279 8.338 18.378 13.043 25.184 15.653 22.644 43.578 38.895 70.825 41.217l7.368.628-2.368 1.84c-1.302 1.012-5.968 4.255-10.368 7.207-33.288 22.335-72.515 33.444-114.682 32.477-19.332-.443-19.11-.973-3.318 7.932 28.556 16.103 61.517 27.294 96.5 32.766 14.236 2.226 51.341 3.062 67.73 1.525 83.934-7.872 153.932-48.71 201.503-117.56 31.823-46.06 50.749-106.293 50.764-161.567l.003-12.568 8.608-6.923c4.735-3.808 12.88-11.374 18.101-16.813 9.073-9.453 21.811-25.443 20.952-26.302-.224-.224-3.952 1.002-8.284 2.724-8.971 3.566-31.18 9.427-39.377 10.392l-5.5.647 2.989-2.295c13.625-10.459 21.951-19.399 28.711-30.826 4.097-6.925 9.359-18.743 8.658-19.444-.248-.249-4.321 1.557-9.051 4.013-12.321 6.396-27.512 12.216-41.025 15.717l-11.718 3.037-4.282-4.222c-20.991-20.7-54.851-30.96-84.448-25.589" fill-rule="evenodd"/></svg></svg>