<svg viewBox="0 0 50 46" xmlns="http://www.w3.org/2000/svg" xmlns:xlink="http://www.w3.org/1999/xlink"><style>:root&gt;svg{display:none}:root&gt;svg:target{display:block}</style><svg viewBox="0 0 50 46" id="1-instagram" xmlns="http://www.w3.org/2000/svg"><path d="M118.5 1.474C77.403 8.027 43.595 30.216 20.823 65.581 11.192 80.538 3.769 101.48 1.066 121.322c-1.474 10.816-1.474 258.54 0 269.356 5.708 41.899 28.397 77.242 64.515 100.499 14.957 9.631 35.899 17.054 55.741 19.757 10.816 1.474 258.54 1.474 269.356 0 41.878-5.706 77.339-28.468 100.504-64.515 9.438-14.687 17.75-37.909 19.475-54.411.349-3.338 1.019-6.308 1.489-6.598.47-.29.854-59.028.854-130.528 0-72.35-.382-129.764-.86-129.468-.474.292-1.144-2.174-1.489-5.481-1.72-16.45-10.063-39.736-19.474-54.352-23.257-36.118-58.6-58.807-100.499-64.515C378.606-.579 129.026-.205 118.5 1.474m6.747 29.629C99.721 34.072 73.435 48.12 56.848 67.655c-7.6 8.952-13.35 18.192-17.725 28.486-4.812 11.324-6.718 18.487-8.076 30.359-1.402 12.248-1.402 246.752 0 259 1.358 11.872 3.264 19.035 8.076 30.359 10.953 25.772 31.246 46.065 57.018 57.018 11.009 4.678 18.246 6.637 29.833 8.073 11.627 1.441 248.425 1.441 260.052 0 11.587-1.436 18.824-3.395 29.833-8.073 25.772-10.953 46.065-31.246 57.018-57.018 4.678-11.009 6.637-18.246 8.073-29.833 1.441-11.627 1.441-248.425 0-260.052-1.436-11.587-3.395-18.824-8.073-29.833-10.953-25.772-31.246-46.065-57.018-57.018-11.324-4.812-18.487-6.718-30.359-8.076-10.943-1.253-249.445-1.201-260.253.056M391.65 67.049c-14.848 2.491-28.18 15.064-32.291 30.451-6.802 25.465 13.515 51.551 40.101 51.488 25.088-.059 44.785-23.372 40.538-47.979-2.901-16.804-15.519-30.047-31.998-33.581-7.156-1.534-9.186-1.581-16.35-.379m4.993 30.053c-4.008 1.097-6.478 3.615-7.767 7.917-.908 3.03-.802 4.334.586 7.26 5.731 12.078 23.84 5.097 20.389-7.86-1.477-5.544-7.5-8.88-13.208-7.317M235.5 117.484c-23.267 3.65-44.741 12.718-63.751 26.919-8.299 6.199-22.458 20.464-28.494 28.707-41.443 56.594-34.909 134.198 15.404 182.959 10.381 10.061 16.811 14.921 28.949 21.88 41.723 23.924 95.061 23.924 136.784 0 12.138-6.959 18.568-11.819 28.949-21.88 50.313-48.761 56.847-126.365 15.404-182.959-6.036-8.243-20.195-22.508-28.494-28.707-30.243-22.593-68.939-32.537-104.751-26.919M.485 256c0 71.775.119 101.137.265 65.25.145-35.888.145-94.613 0-130.5C.604 154.862.485 184.225.485 256M240.5 147.529c-24.118 3.529-44.812 13.894-61.945 31.026-30.392 30.393-40.179 74.633-25.484 115.198 9.286 25.632 29.095 47.828 53.676 60.143 12.669 6.347 23.612 9.525 38.503 11.182 44.164 4.914 88.422-19.455 108.646-59.825 6.347-12.669 9.525-23.612 11.182-38.503 3.547-31.872-8.263-64.873-31.528-88.101-17.849-17.822-40.023-28.583-65.05-31.57-11.096-1.323-16.468-1.237-28 .45" fill-rule="evenodd"/></svg><svg viewBox="0 0 50 46" id="2-facebook" xmlns="http://www.w3.org/2000/svg"><path d="M297.5 1.584c-23.598 3.645-43.679 13.45-59.072 28.844-15.448 15.447-24.717 34.33-30.056 61.231-1.218 6.138-1.666 17.888-2.063 54.091l-.507 46.25H132v91h74v229h92V283h70.909l.564-3.25c.76-4.375 10.527-84.44 10.527-86.289 0-1.257-5.715-1.461-41-1.461h-41v-36.951c0-23.55.408-38.872 1.124-42.25 2.642-12.45 9.911-20.809 21.596-24.832 6.388-2.2 8.527-2.358 37.03-2.748l30.25-.414V3.235l-7.25-.646c-32.208-2.87-68.352-3.306-83.25-1.005" fill-rule="evenodd"/></svg><svg viewBox="0 0 50 46" id="3-twitter" xmlns="http://www.w3.org/2000/svg"><path d="M331.334 59.481c-37.383 6.783-66.772 33.189-77.929 70.019-2.454 8.102-2.735 10.596-2.816 25-.049 8.8.258 17.941.683 20.313l.772 4.312-7.272-.649c-29.165-2.605-59.681-9.876-84.772-20.198-24.097-9.913-53.837-27.961-73.5-44.602-9.846-8.333-26.567-24.958-33.773-33.579l-3.68-4.403-3.484 7.403c-1.916 4.072-4.705 11.453-6.198 16.403-2.462 8.159-2.722 10.542-2.784 25.5-.082 19.668 1.619 27.565 9.371 43.5 6.97 14.329 17.211 26.927 29.548 36.347l3 2.29-7.121-.563c-8.723-.691-22.441-4.567-30.426-8.598L35 194.971v3.942c0 7.601 2.176 19.672 5.197 28.827 9.547 28.934 32.288 51.812 61.471 61.843 5.236 1.799 9.732 3.484 9.991 3.743 1.376 1.376-15.456 2.873-27.848 2.478-8.073-.258-13.811-.058-13.811.48 0 2.279 8.338 18.378 13.043 25.184 15.653 22.644 43.578 38.895 70.825 41.217l7.368.628-2.368 1.84c-1.302 1.012-5.968 4.255-10.368 7.207-33.288 22.335-72.515 33.444-114.682 32.477-19.332-.443-19.11-.973-3.318 7.932 28.556 16.103 61.517 27.294 96.5 32.766 14.236 2.226 51.341 3.062 67.73 1.525 83.934-7.872 153.932-48.71 201.503-117.56 31.823-46.06 50.749-106.293 50.764-161.567l.003-12.568 8.608-6.923c4.735-3.808 12.88-11.374 18.101-16.813 9.073-9.453 21.811-25.443 20.952-26.302-.224-.224-3.952 1.002-8.284 2.724-8.971 3.566-31.18 9.427-39.377 10.392l-5.5.647 2.989-2.295c13.625-10.459 21.951-19.399 28.711-30.826 4.097-6.925 9.359-18.743 8.658-19.444-.248-.249-4.321 1.557-9.051 4.013-12.321 6.396-27.512 12.216-41.025 15.717l-11.718 3.037-4.282-4.222c-20.991-20.7-54.851-30.96-84.448-25.589" fill-rule="evenodd"/></svg></svg>
