<?xml version="1.0" standalone="no"?>
<!DOCTYPE svg PUBLIC "-//W3C//DTD SVG 20010904//EN"
 "http://www.w3.org/TR/2001/REC-SVG-20010904/DTD/svg10.dtd">
<svg version="1.0" xmlns="http://www.w3.org/2000/svg"
 width="3335.000000pt" height="3335.000000pt" viewBox="0 0 3335.000000 3335.000000"
 preserveAspectRatio="xMidYMid meet">
<metadata>
Created by potrace 1.14, written by Peter Selinger 2001-2017
</metadata>
<g transform="translate(0.000000,3335.000000) scale(0.100000,-0.100000)"
fill="#000000" stroke="none">
<path d="M16634 28030 c-38 -56 -85 -123 -104 -150 -19 -27 -58 -82 -86 -122
-75 -106 -103 -138 -259 -293 -142 -143 -181 -179 -270 -250 -28 -22 -55 -44
-62 -50 -7 -5 -19 -16 -27 -22 -29 -24 -222 -160 -292 -205 -176 -113 -424
-245 -619 -328 -55 -23 -114 -49 -131 -56 -54 -23 -256 -94 -329 -116 -142
-41 -281 -78 -310 -84 -16 -3 -48 -9 -70 -15 -46 -11 -73 -17 -112 -24 -16 -3
-53 -9 -83 -15 -68 -12 -102 -17 -160 -25 -25 -3 -52 -8 -60 -10 -8 -2 -49 -7
-90 -10 -41 -4 -86 -8 -100 -10 -177 -26 -842 -26 -1055 0 -16 3 -66 7 -110
11 -44 3 -82 8 -85 9 -3 2 -33 6 -65 10 -102 11 -363 55 -515 86 -80 17 -156
32 -170 35 -175 35 -604 159 -930 269 -140 47 -259 87 -263 88 -4 1 -30 -50
-57 -113 -83 -195 -234 -556 -315 -750 -42 -102 -85 -203 -95 -225 -10 -22
-127 -299 -260 -615 -133 -316 -248 -590 -256 -607 -8 -18 -20 -48 -28 -65
-17 -39 -166 -392 -238 -563 -28 -66 -90 -214 -139 -329 -49 -114 -89 -210
-89 -212 0 -2 -11 -27 -24 -56 -13 -29 -61 -141 -106 -248 -45 -107 -90 -213
-100 -235 -10 -22 -34 -80 -54 -130 -21 -49 -43 -103 -50 -120 -8 -16 -21 -46
-29 -65 -40 -90 -97 -230 -97 -238 0 -5 55 -46 122 -92 174 -119 331 -261 457
-410 25 -30 52 -61 59 -69 7 -8 46 -57 86 -110 94 -125 140 -197 246 -381 79
-137 235 -515 254 -617 2 -10 11 -43 19 -73 22 -77 65 -285 72 -349 4 -30 9
-63 11 -75 26 -135 26 -666 -1 -856 -2 -14 -6 -45 -9 -70 -16 -133 -33 -212
-132 -620 -20 -80 -37 -152 -39 -160 -2 -8 -31 -125 -65 -260 -34 -135 -64
-254 -67 -265 -5 -22 -5 -24 -21 -80 -6 -22 -13 -52 -16 -66 -2 -14 -13 -59
-25 -100 -19 -70 -88 -336 -96 -369 -2 -8 -22 -88 -45 -178 -23 -90 -43 -171
-45 -180 -2 -9 -17 -70 -34 -134 -17 -65 -33 -128 -35 -140 -3 -13 -23 -97
-46 -188 -22 -91 -42 -174 -45 -185 -2 -11 -14 -60 -25 -110 -34 -144 -46
-197 -94 -425 -26 -118 -51 -233 -56 -255 -9 -44 -37 -185 -44 -225 -2 -14
-15 -88 -30 -165 -14 -77 -28 -153 -31 -170 -10 -58 -57 -350 -60 -380 -2 -16
-7 -48 -10 -70 -12 -75 -14 -90 -21 -150 -3 -33 -8 -69 -10 -80 -2 -11 -7 -49
-10 -85 -3 -36 -7 -78 -9 -94 -2 -15 -7 -65 -10 -110 -4 -44 -8 -100 -10 -123
-23 -253 -22 -798 0 -1018 2 -22 7 -69 10 -105 6 -70 14 -140 20 -180 2 -14 7
-45 10 -70 9 -68 14 -100 25 -155 5 -27 11 -61 14 -75 40 -247 164 -657 278
-923 93 -218 170 -370 292 -572 129 -214 359 -524 531 -715 18 -19 76 -84 130
-145 54 -60 124 -137 154 -170 98 -106 522 -526 645 -640 168 -156 176 -163
257 -235 40 -36 80 -72 89 -80 56 -54 338 -295 655 -559 658 -547 1672 -1289
2454 -1793 351 -227 841 -527 1061 -650 25 -14 88 -50 140 -80 52 -30 133 -75
180 -100 47 -25 108 -58 135 -73 275 -149 659 -335 930 -450 61 -26 125 -54
143 -62 32 -15 36 -15 95 13 80 37 757 378 822 414 28 15 113 60 190 100 77
40 145 76 150 80 6 4 57 32 115 63 137 72 607 334 660 367 8 6 101 60 205 121
175 103 297 176 335 199 8 5 132 82 274 171 750 466 1494 993 2126 1507 101
83 492 411 500 421 3 3 41 38 84 76 44 39 87 77 96 85 9 8 61 56 115 105 254
232 598 572 820 810 77 83 142 152 145 155 18 15 219 252 306 360 578 719 929
1407 1093 2145 19 85 23 108 36 188 3 17 8 39 10 47 2 8 7 33 10 55 3 23 7 50
9 60 2 11 7 54 11 95 4 41 9 84 11 94 26 140 25 824 -1 1106 -2 25 -7 77 -10
115 -5 68 -12 135 -20 205 -2 19 -7 64 -11 100 -3 36 -8 73 -10 84 -2 10 -6
44 -9 75 -3 31 -8 65 -10 76 -2 11 -7 43 -10 70 -3 28 -8 60 -10 71 -3 12 -14
82 -25 155 -11 74 -22 145 -25 159 -6 30 -22 121 -30 170 -3 19 -8 42 -10 50
-2 8 -6 26 -9 40 -2 14 -11 66 -21 115 -9 50 -19 101 -22 115 -2 14 -13 68
-25 120 -11 52 -22 104 -24 115 -2 11 -15 70 -29 130 -14 61 -32 139 -39 175
-25 112 -143 593 -216 880 -39 151 -72 282 -74 290 -5 19 -96 372 -131 505
-14 55 -28 107 -30 115 -2 8 -11 44 -20 80 -9 36 -20 81 -25 100 -5 19 -18 73
-30 120 -12 47 -23 92 -25 100 -2 8 -11 44 -20 80 -9 36 -18 72 -20 80 -2 8
-20 83 -40 165 -20 83 -38 157 -40 165 -1 8 -8 33 -13 55 -6 22 -13 51 -16 65
-2 14 -14 66 -26 115 -68 282 -93 497 -94 810 -1 166 9 399 18 414 2 3 7 35
10 71 4 36 13 97 21 135 8 39 17 85 20 103 21 123 111 405 181 569 42 98 156
324 185 365 11 14 19 29 19 32 0 12 205 304 230 326 3 3 25 30 50 60 62 77
248 265 323 326 34 28 98 75 142 105 44 30 89 62 99 71 11 10 28 20 38 24 11
3 17 11 15 17 -12 31 -150 356 -162 382 -7 17 -64 149 -125 295 -123 290 -224
528 -244 575 -8 16 -30 71 -51 120 -46 111 -57 137 -84 197 -11 26 -21 50 -21
53 0 2 -11 28 -24 57 -25 53 -285 668 -377 890 -27 65 -56 135 -65 155 -10 21
-18 40 -19 43 -2 6 -17 43 -38 90 -8 19 -76 181 -152 360 -75 179 -143 339
-150 355 -8 17 -66 156 -130 310 -64 154 -124 295 -132 313 -8 19 -47 111 -86
206 l-72 173 -80 -27 c-44 -14 -161 -54 -260 -87 -99 -34 -220 -73 -270 -88
-49 -14 -106 -31 -125 -38 -19 -6 -40 -12 -45 -13 -6 -1 -69 -17 -140 -37
-109 -29 -247 -63 -340 -83 -73 -16 -123 -26 -141 -29 -11 -2 -45 -8 -75 -14
-65 -13 -80 -16 -139 -26 -25 -4 -54 -9 -65 -11 -11 -2 -40 -6 -65 -9 -25 -3
-56 -8 -70 -10 -14 -3 -47 -7 -75 -10 -27 -3 -61 -7 -75 -10 -14 -2 -50 -7
-80 -10 -30 -3 -75 -7 -100 -10 -254 -26 -887 -26 -1060 0 -14 2 -56 6 -93 10
-37 3 -76 8 -85 10 -9 1 -37 6 -62 9 -679 91 -1355 348 -1910 724 -95 65 -279
203 -335 253 -16 14 -57 50 -90 79 -187 164 -319 317 -495 570 -78 113 -147
211 -154 218 -10 10 -26 -8 -82 -88z m163 -1082 c47 -46 97 -94 112 -108 49
-47 255 -216 351 -287 181 -134 352 -242 555 -353 167 -91 231 -122 439 -215
352 -156 933 -318 1331 -370 84 -11 114 -15 148 -19 17 -3 61 -8 97 -11 36 -3
83 -8 105 -10 237 -25 816 -25 1061 0 94 9 172 17 204 20 59 5 144 15 170 19
36 7 88 14 145 21 28 4 57 8 65 10 8 2 31 7 50 10 19 3 60 10 90 15 30 5 66
11 80 14 47 8 235 47 275 58 22 5 51 12 65 15 14 2 43 9 65 15 22 5 47 11 55
13 32 7 258 67 301 81 25 8 54 16 65 18 10 3 47 13 81 24 l62 19 66 -161 c37
-88 73 -174 80 -191 17 -38 224 -527 277 -655 21 -52 45 -108 53 -125 12 -27
241 -568 370 -875 88 -209 466 -1103 482 -1140 8 -19 19 -44 24 -55 5 -11 38
-88 73 -172 l65 -152 -115 -116 c-415 -422 -716 -917 -899 -1477 -26 -79 -48
-150 -50 -158 -2 -8 -12 -51 -24 -95 -30 -121 -73 -351 -86 -470 -4 -33 -9
-67 -10 -76 -23 -121 -23 -626 0 -844 30 -291 55 -416 205 -1030 23 -93 44
-178 46 -188 2 -10 6 -27 9 -37 6 -20 7 -24 29 -115 8 -33 35 -141 61 -240 54
-211 107 -417 175 -680 27 -104 63 -244 80 -310 17 -66 33 -127 35 -135 66
-261 197 -811 240 -1010 12 -60 75 -360 78 -380 3 -14 14 -77 26 -140 12 -63
23 -125 25 -136 3 -12 7 -39 10 -60 4 -22 15 -91 26 -154 10 -63 22 -135 25
-160 3 -25 8 -56 10 -70 2 -14 7 -45 10 -70 10 -76 16 -124 20 -150 4 -31 15
-130 20 -196 3 -27 7 -69 10 -94 5 -51 11 -119 22 -265 16 -210 8 -862 -12
-935 -2 -8 -7 -44 -10 -80 -4 -36 -9 -74 -11 -85 -2 -11 -8 -45 -14 -75 -13
-77 -40 -207 -54 -260 -175 -665 -489 -1244 -1026 -1885 -225 -269 -727 -788
-1049 -1085 -69 -63 -132 -122 -141 -130 -8 -8 -49 -44 -90 -80 -41 -36 -79
-70 -85 -76 -5 -6 -77 -69 -160 -139 -161 -136 -162 -137 -245 -205 -30 -25
-57 -47 -60 -50 -27 -30 -507 -402 -736 -572 -675 -499 -1646 -1123 -2374
-1526 -25 -14 -99 -55 -165 -92 -153 -85 -222 -123 -460 -250 -38 -21 -99 -53
-135 -72 -88 -48 -546 -283 -640 -328 l-74 -37 -76 34 c-286 128 -791 390
-1140 593 -69 40 -145 84 -170 98 -93 52 -450 271 -687 421 -159 100 -706 465
-873 582 -74 52 -166 117 -205 144 -388 272 -982 723 -1395 1059 -254 206
-657 550 -800 682 -19 18 -49 45 -66 61 -47 43 -223 205 -274 253 -220 205
-670 670 -752 775 -12 17 -30 37 -39 45 -13 12 -167 198 -233 280 -136 173
-309 453 -414 670 -107 223 -225 553 -266 745 -4 17 -11 48 -16 70 -5 22 -12
51 -15 65 -10 43 -43 233 -49 280 -10 72 -26 212 -31 255 -25 244 -25 772 0
1015 2 19 6 72 10 118 3 46 8 91 10 100 1 9 6 53 11 97 4 44 8 82 9 85 1 3 5
30 9 60 16 121 47 330 62 415 8 50 17 101 19 115 9 57 62 345 70 380 3 14 7
36 10 50 2 14 21 102 40 195 20 94 38 181 41 194 3 12 12 53 20 90 9 36 17 74
19 84 9 41 80 346 122 517 24 102 46 192 48 200 2 8 29 114 60 235 31 121 58
227 60 235 11 46 40 163 100 395 156 608 249 980 315 1265 12 52 23 102 26
110 13 53 25 105 30 136 3 20 7 45 9 54 2 10 7 40 11 67 3 26 8 55 9 63 2 9 6
43 10 75 4 33 9 74 11 90 24 187 24 747 0 895 -3 14 -7 48 -10 75 -11 96 -16
130 -27 185 -27 137 -53 250 -71 315 -10 39 -21 77 -23 85 -2 8 -18 60 -35
115 -79 245 -205 525 -335 743 -83 139 -96 161 -108 176 -4 6 -39 56 -79 111
-111 156 -231 298 -370 440 -72 74 -124 134 -119 140 4 5 21 44 38 85 37 88
119 282 138 325 14 30 30 69 125 295 29 69 96 229 150 355 54 127 117 275 140
330 23 55 48 114 55 130 27 63 229 542 342 810 13 33 31 74 38 90 7 17 113
266 235 555 121 288 223 526 226 529 2 3 71 -14 152 -37 271 -77 326 -92 502
-131 96 -22 189 -42 205 -45 17 -3 75 -14 130 -25 55 -11 134 -25 175 -31 41
-6 86 -13 100 -16 14 -2 45 -6 70 -10 25 -3 56 -7 70 -10 14 -2 50 -7 80 -10
30 -3 66 -7 79 -9 12 -2 60 -7 105 -10 44 -4 92 -9 106 -11 140 -23 914 -22
1061 1 13 2 56 6 94 10 111 10 158 16 185 21 14 2 43 7 65 9 33 5 178 29 308
51 16 3 117 28 225 55 108 27 204 51 214 54 61 14 427 143 538 190 149 62 448
206 531 257 30 17 88 52 129 76 75 45 292 186 320 209 8 6 53 40 100 75 47 34
90 67 97 73 6 5 31 26 54 45 68 55 217 188 293 263 39 37 72 67 74 67 2 0 42
-37 89 -82z"/>
<path d="M16680 26498 c-14 -11 -43 -34 -65 -51 -21 -18 -53 -44 -70 -58 -142
-121 -476 -348 -695 -474 -118 -67 -469 -245 -484 -245 -3 0 -29 -11 -58 -24
-268 -122 -726 -268 -1043 -332 -11 -2 -43 -8 -71 -14 -28 -6 -61 -13 -75 -15
-168 -29 -264 -45 -314 -51 -33 -3 -67 -8 -76 -9 -9 -2 -52 -6 -95 -10 -43 -4
-87 -9 -97 -11 -97 -18 -846 -26 -1022 -11 -44 4 -116 9 -160 13 -44 3 -91 7
-105 9 -14 2 -54 7 -90 10 -36 3 -112 13 -170 21 -183 26 -175 24 -290 44 -30
5 -70 12 -88 15 -97 16 -401 82 -561 121 -101 25 -187 42 -192 37 -4 -4 -40
-84 -79 -178 -39 -93 -75 -179 -80 -190 -5 -11 -46 -108 -91 -215 -44 -107
-87 -208 -94 -225 -8 -16 -39 -91 -70 -165 -71 -167 -78 -184 -104 -242 -11
-26 -21 -50 -21 -54 0 -3 -11 -29 -24 -57 -13 -29 -58 -135 -101 -237 -80
-190 -157 -372 -181 -425 -7 -16 -25 -59 -39 -95 -15 -36 -33 -78 -40 -95 -34
-75 -328 -772 -332 -786 -4 -15 11 -37 72 -102 130 -139 393 -499 487 -667 14
-25 36 -63 48 -85 52 -89 179 -357 220 -460 23 -60 49 -123 55 -140 27 -63
114 -354 131 -435 3 -14 10 -45 15 -70 6 -25 13 -56 15 -70 2 -14 9 -45 14
-70 5 -25 12 -58 15 -75 2 -16 7 -48 11 -70 8 -52 11 -76 19 -155 4 -36 8 -78
10 -95 7 -56 18 -310 18 -420 0 -108 -11 -375 -18 -418 -2 -12 -6 -53 -10 -91
-7 -66 -9 -81 -20 -151 -2 -16 -7 -52 -10 -80 -18 -149 -181 -825 -466 -1925
-132 -511 -322 -1297 -344 -1420 -3 -18 -8 -36 -10 -39 -2 -4 -6 -26 -10 -51
-4 -25 -8 -47 -10 -51 -2 -3 -7 -20 -10 -37 -3 -17 -16 -81 -29 -144 -14 -62
-27 -129 -30 -148 -3 -19 -14 -78 -25 -132 -11 -53 -27 -138 -35 -190 -9 -51
-18 -104 -21 -118 -2 -13 -7 -42 -10 -65 -4 -22 -13 -78 -20 -125 -8 -47 -17
-105 -20 -130 -3 -25 -8 -56 -10 -70 -8 -45 -15 -98 -20 -152 -3 -29 -7 -62
-9 -73 -2 -11 -7 -58 -11 -105 -4 -47 -9 -92 -10 -101 -26 -138 -26 -933 0
-1101 2 -13 6 -50 10 -83 12 -113 53 -342 77 -430 5 -22 12 -50 14 -62 22
-121 143 -461 225 -633 92 -193 259 -470 352 -587 298 -369 434 -519 778 -863
218 -217 310 -305 449 -430 52 -47 103 -94 115 -105 18 -19 282 -249 349 -306
16 -13 34 -29 40 -34 6 -6 79 -67 161 -135 83 -68 152 -126 155 -130 10 -11
397 -318 570 -452 214 -165 519 -392 700 -521 74 -53 140 -100 145 -104 8 -7
204 -143 391 -273 359 -248 1060 -697 1359 -870 183 -106 361 -208 410 -235
33 -18 107 -58 165 -90 155 -86 631 -325 645 -325 8 0 71 30 142 66 232 120
417 216 493 257 41 22 113 60 160 85 47 25 90 48 95 52 6 4 55 31 110 60 55
29 117 64 137 77 21 13 39 23 42 23 2 0 48 25 102 56 55 31 117 67 139 79 22
13 81 46 130 75 50 29 105 61 123 71 52 30 417 250 532 321 444 274 987 640
1425 961 198 145 679 518 705 547 3 3 41 34 85 70 120 97 505 428 551 474 12
12 66 62 120 111 280 257 732 712 898 906 16 19 57 66 91 104 214 243 449 567
601 826 103 175 239 457 289 599 25 68 76 223 80 240 2 8 9 31 15 50 30 100
82 354 96 475 3 22 7 51 9 65 26 143 25 777 0 979 -2 17 -7 66 -10 109 -7 96
-13 164 -19 211 -3 20 -8 61 -11 91 -4 30 -9 69 -12 85 -2 17 -6 44 -8 60 -17
158 -63 436 -126 760 -17 88 -33 171 -35 185 -14 75 -59 281 -104 475 -28 121
-53 228 -55 239 -2 10 -23 93 -46 185 -22 91 -43 173 -44 181 -8 32 -125 492
-160 625 -204 778 -458 1817 -479 1960 -4 22 -8 54 -11 70 -10 64 -23 171 -30
240 -16 166 -20 257 -20 495 0 235 5 336 20 475 3 22 8 63 11 90 25 225 110
589 194 830 167 478 458 978 779 1345 137 155 130 144 111 185 -5 11 -34 79
-63 150 -30 72 -144 339 -252 595 -282 664 -406 958 -497 1175 -43 105 -85
204 -93 220 -26 59 -318 751 -327 778 -6 15 -14 27 -18 27 -5 0 -92 -20 -194
-45 -199 -48 -399 -92 -456 -101 -19 -3 -66 -12 -105 -19 -73 -15 -102 -20
-170 -30 -23 -3 -51 -7 -64 -10 -13 -2 -49 -7 -80 -10 -31 -4 -63 -8 -71 -10
-8 -2 -40 -7 -70 -10 -30 -3 -66 -8 -80 -10 -14 -2 -61 -7 -105 -11 -44 -3
-88 -8 -98 -10 -140 -26 -955 -25 -1182 1 -16 2 -59 6 -95 10 -341 32 -738
112 -1098 219 -133 40 -440 149 -497 176 -11 5 -61 27 -111 49 -208 90 -472
228 -664 347 -83 51 -297 194 -325 216 -5 5 -42 32 -80 61 -39 29 -118 90
-175 136 -58 46 -109 88 -115 92 -5 4 -21 -2 -35 -13z m107 -576 c270 -203
636 -422 948 -569 180 -84 224 -103 345 -150 63 -24 124 -48 135 -53 86 -39
508 -168 675 -205 8 -2 65 -15 125 -29 61 -14 124 -27 140 -30 17 -3 41 -8 55
-11 44 -9 134 -24 175 -30 22 -4 51 -8 65 -11 14 -2 77 -10 140 -18 101 -13
154 -19 300 -32 284 -25 885 -25 1145 0 17 2 66 6 110 10 44 4 96 9 115 11 19
2 60 7 90 10 30 3 66 8 80 10 14 2 48 7 75 10 28 3 75 10 105 15 30 5 73 12
95 15 22 3 76 12 120 21 44 8 96 17 115 20 19 3 108 21 198 41 90 19 165 33
167 31 4 -4 218 -507 522 -1228 106 -252 308 -729 409 -965 l93 -219 -26 -36
c-15 -19 -30 -37 -33 -40 -4 -3 -47 -59 -96 -125 -250 -334 -462 -714 -604
-1085 -66 -173 -160 -475 -184 -590 -3 -14 -16 -79 -30 -145 -29 -141 -52
-282 -61 -380 -4 -38 -8 -81 -11 -95 -24 -144 -24 -817 0 -960 3 -14 7 -55 11
-92 3 -37 8 -77 10 -90 2 -13 7 -45 10 -73 5 -46 29 -192 39 -240 17 -79 81
-356 111 -480 21 -82 38 -157 40 -165 5 -26 134 -535 197 -780 33 -129 62
-242 63 -250 2 -8 15 -60 30 -115 14 -55 39 -149 55 -210 32 -122 99 -385 105
-413 2 -9 29 -116 59 -238 52 -208 148 -614 160 -679 3 -16 28 -140 56 -275
42 -204 80 -415 106 -575 2 -16 6 -41 9 -55 2 -14 7 -43 10 -65 3 -22 7 -47
10 -55 2 -8 6 -42 10 -75 3 -33 10 -90 16 -128 13 -99 16 -127 34 -312 13
-133 18 -193 31 -415 6 -108 6 -365 -1 -455 -6 -85 -15 -186 -20 -215 -2 -14
-6 -43 -10 -65 -5 -35 -12 -75 -31 -182 -3 -16 -16 -73 -30 -128 -103 -409
-324 -850 -635 -1266 -57 -76 -258 -328 -284 -355 -5 -6 -41 -46 -80 -90 -128
-144 -197 -217 -475 -494 -327 -328 -548 -532 -840 -780 -36 -30 -70 -60 -77
-66 -97 -91 -641 -518 -933 -733 -370 -271 -900 -630 -1288 -872 -56 -35 -115
-72 -130 -81 -15 -10 -36 -22 -47 -28 -11 -5 -49 -28 -85 -51 -163 -103 -825
-485 -1065 -614 -38 -21 -83 -45 -100 -55 -43 -25 -302 -162 -526 -278 l-115
-60 -60 30 c-135 67 -403 209 -527 279 -38 22 -71 39 -74 39 -3 0 -17 8 -31
19 -15 10 -49 31 -77 45 -71 39 -424 247 -503 298 -15 10 -40 25 -57 34 -40
22 -184 114 -435 275 -240 154 -991 666 -1045 712 -5 4 -64 47 -130 95 -148
107 -144 104 -313 229 -182 136 -162 121 -371 284 -276 215 -289 226 -422 334
-112 91 -390 324 -519 435 -60 51 -315 278 -366 325 -640 590 -1130 1135
-1340 1491 -249 423 -388 880 -429 1414 -3 41 -8 91 -11 110 -6 44 -6 536 0
610 3 30 8 91 11 135 10 128 15 188 20 225 2 19 9 73 15 120 17 132 21 163 26
195 3 17 7 41 9 55 13 96 20 142 51 320 14 80 27 155 29 168 2 12 6 30 9 40 3
9 7 35 11 57 5 33 19 109 41 210 2 11 6 31 9 45 10 55 88 412 116 535 56 242
70 299 190 780 67 264 122 487 124 495 2 8 11 42 20 75 21 79 4 10 180 709 85
340 157 632 160 650 3 17 8 39 11 48 3 9 7 25 9 35 2 10 10 47 19 83 8 36 17
76 20 90 13 66 26 138 31 170 3 19 7 46 10 60 2 14 7 50 10 80 3 30 8 71 10
90 12 100 22 208 30 335 5 73 5 482 0 540 -2 28 -6 89 -10 137 -3 48 -8 97
-10 110 -2 13 -7 48 -10 78 -16 156 -65 418 -100 543 -8 26 -12 47 -9 47 3 0
0 8 -5 18 -6 11 -12 32 -15 47 -7 39 -51 180 -93 300 -160 458 -429 945 -722
1310 -44 55 -81 105 -81 111 0 6 95 236 211 510 216 509 234 552 428 1014 62
146 118 279 125 295 8 17 67 156 132 310 64 154 118 281 120 283 1 2 37 -4 80
-14 123 -26 167 -35 194 -40 14 -2 45 -8 70 -14 25 -5 61 -11 80 -14 19 -4 44
-8 55 -10 29 -6 203 -34 250 -41 22 -3 51 -7 65 -10 14 -2 70 -9 125 -15 55
-6 111 -13 125 -15 14 -2 61 -7 105 -10 44 -4 92 -8 106 -10 151 -19 802 -26
1019 -12 133 9 215 16 260 22 19 2 62 6 95 10 79 7 123 13 360 51 72 11 300
58 415 85 127 30 186 46 365 101 55 17 105 32 110 34 6 1 57 19 115 39 524
184 1009 436 1455 757 83 59 151 107 152 108 1 0 37 -26 80 -58z"/>
<path d="M14734 20819 c-2 -4 -3 -248 -3 -543 1 -493 2 -536 17 -537 10 0 146
0 305 -1 l288 0 -5 -32 c-6 -38 -15 -118 -31 -278 -3 -31 -8 -66 -10 -77 -2
-11 -6 -51 -10 -89 -3 -38 -7 -78 -9 -88 -2 -10 -7 -48 -11 -84 -3 -36 -8 -76
-10 -90 -2 -14 -6 -52 -10 -85 -6 -62 -12 -114 -20 -175 -3 -19 -7 -62 -11
-95 -3 -33 -7 -71 -9 -85 -2 -14 -6 -54 -10 -90 -3 -36 -8 -76 -10 -90 -2 -14
-7 -54 -11 -90 -3 -36 -8 -74 -10 -84 -2 -10 -6 -50 -9 -88 -4 -38 -8 -78 -10
-89 -2 -11 -7 -50 -10 -87 -4 -37 -8 -78 -10 -92 -2 -14 -6 -50 -10 -80 -7
-65 -14 -121 -20 -170 -2 -19 -7 -64 -10 -100 -4 -36 -8 -76 -10 -90 -2 -14
-6 -50 -10 -80 -3 -30 -8 -66 -10 -80 -2 -14 -7 -57 -10 -96 -3 -39 -7 -80 -9
-90 -2 -10 -7 -50 -11 -87 -3 -37 -8 -76 -10 -85 -1 -9 -6 -51 -10 -92 -4 -41
-8 -82 -10 -90 -1 -8 -6 -46 -10 -83 -3 -37 -8 -76 -10 -85 -1 -9 -6 -48 -9
-87 -4 -38 -9 -81 -11 -95 -2 -14 -7 -52 -10 -85 -3 -33 -7 -71 -10 -85 -2
-14 -7 -56 -10 -93 -4 -37 -8 -76 -10 -85 -1 -9 -6 -48 -9 -87 -4 -38 -9 -81
-11 -95 -4 -30 -13 -103 -21 -185 -3 -33 -7 -67 -9 -75 -1 -8 -6 -42 -9 -75
-4 -33 -9 -80 -12 -105 -2 -25 -7 -65 -9 -90 -3 -25 -7 -58 -9 -75 -3 -16 -8
-61 -11 -100 -4 -38 -9 -78 -11 -88 -2 -10 -6 -46 -9 -80 -3 -34 -10 -96 -15
-137 -5 -41 -12 -100 -15 -130 -4 -30 -8 -66 -10 -80 -2 -14 -6 -56 -10 -95
-3 -38 -8 -77 -10 -85 -2 -8 -6 -46 -10 -85 -3 -38 -8 -81 -10 -95 -2 -14 -6
-52 -10 -85 -3 -33 -8 -71 -10 -85 -2 -14 -6 -56 -10 -93 -3 -37 -8 -76 -10
-85 -1 -9 -6 -48 -9 -87 -4 -38 -9 -81 -11 -95 -5 -32 -13 -98 -20 -175 -3
-33 -8 -76 -10 -95 -3 -19 -7 -55 -10 -80 -3 -25 -7 -61 -10 -80 -2 -19 -7
-60 -10 -90 -3 -30 -8 -71 -10 -90 -2 -19 -7 -60 -10 -90 -3 -30 -8 -72 -10
-92 -9 -68 -14 -112 -20 -168 -3 -30 -8 -71 -10 -90 -2 -19 -7 -60 -10 -90 -4
-30 -8 -66 -10 -80 -2 -14 -7 -56 -10 -95 -4 -38 -8 -76 -10 -85 -1 -8 -6 -44
-9 -80 -4 -36 -9 -81 -11 -100 -2 -19 -7 -60 -10 -90 -4 -30 -8 -67 -11 -82
-4 -26 -2 -28 28 -29 37 -1 1270 0 1305 0 18 1 22 9 28 64 4 34 8 73 10 87 3
14 7 50 10 80 2 30 7 69 9 85 2 17 7 59 11 95 3 36 8 76 10 90 2 14 6 54 10
90 3 36 8 72 10 80 2 8 6 47 10 85 3 39 8 81 10 95 2 14 6 52 10 85 9 86 15
144 22 190 5 39 7 55 18 165 3 30 7 66 10 80 2 14 7 56 10 93 4 37 8 76 10 85
1 9 6 49 10 87 3 39 8 84 10 100 4 29 9 76 21 175 3 25 9 79 14 120 5 41 12
102 15 135 3 33 9 94 15 135 5 41 12 100 15 130 11 97 17 145 20 148 5 6 1197
4 1203 -2 3 -4 6 -14 7 -24 2 -21 15 -134 21 -187 3 -22 7 -58 9 -80 2 -22 7
-60 10 -85 2 -25 7 -70 10 -100 4 -30 8 -68 10 -85 6 -41 15 -122 20 -165 1
-19 6 -60 10 -90 7 -62 10 -87 20 -180 4 -36 8 -76 10 -90 2 -14 6 -50 10 -80
9 -86 16 -153 20 -180 2 -14 7 -54 10 -90 4 -36 9 -78 11 -95 2 -16 6 -52 9
-80 5 -43 13 -112 41 -360 3 -27 7 -61 9 -75 2 -14 6 -54 10 -90 4 -36 8 -76
10 -90 2 -14 6 -54 10 -90 4 -36 9 -78 11 -95 2 -16 7 -59 10 -95 3 -36 7 -67
9 -69 3 -3 1106 -4 1303 -2 l53 1 -6 58 c-3 31 -8 71 -10 87 -2 17 -7 57 -10
90 -3 33 -8 71 -10 85 -3 14 -7 57 -10 95 -3 39 -8 77 -10 85 -2 8 -7 42 -10
75 -3 33 -7 76 -10 95 -2 19 -9 81 -15 137 -6 56 -12 110 -14 120 -2 10 -7 52
-11 93 -4 41 -9 82 -10 90 -2 8 -6 44 -9 80 -4 36 -8 76 -10 90 -3 14 -7 56
-11 95 -4 38 -8 72 -10 75 -1 3 -6 46 -10 95 -4 50 -8 92 -10 95 -2 3 -6 37
-9 75 -3 39 -8 79 -10 90 -2 11 -7 52 -10 90 -4 39 -9 81 -11 95 -2 14 -6 52
-10 85 -3 33 -8 71 -10 85 -2 14 -6 52 -9 85 -4 33 -8 76 -11 95 -3 19 -7 58
-10 85 -3 28 -10 88 -15 135 -6 47 -13 108 -15 135 -3 28 -8 66 -10 85 -2 19
-7 58 -10 85 -3 28 -7 64 -9 80 -2 17 -7 59 -10 95 -4 36 -11 97 -16 135 -5
39 -12 99 -16 135 -3 36 -7 72 -9 80 -1 8 -6 44 -9 80 -4 36 -8 79 -10 95 -2
17 -7 59 -10 95 -4 36 -9 76 -11 90 -2 14 -7 54 -11 90 -3 36 -7 72 -9 80 -2
8 -6 44 -9 80 -4 36 -9 81 -11 100 -3 19 -7 60 -10 90 -3 30 -8 66 -10 80 -2
14 -6 54 -10 90 -4 36 -8 76 -10 90 -2 14 -6 54 -10 90 -3 36 -8 72 -10 80 -2
8 -7 49 -10 90 -4 41 -8 82 -10 90 -2 9 -6 47 -10 85 -3 39 -8 81 -10 95 -2
14 -6 52 -10 85 -3 33 -8 71 -10 85 -4 26 -12 100 -20 185 -3 28 -10 88 -15
135 -6 47 -13 108 -16 135 -3 28 -7 61 -9 75 -2 14 -7 57 -11 95 -4 39 -8 72
-9 75 -1 3 -5 41 -9 85 -5 44 -9 87 -11 95 -1 8 -6 47 -9 85 -4 39 -9 77 -11
85 -2 8 -7 51 -10 95 -4 44 -8 82 -10 85 -1 3 -6 41 -10 84 -4 43 -9 88 -11
100 -2 12 -6 46 -9 76 -2 30 -6 71 -9 90 -3 19 -7 60 -11 90 -16 145 -26 230
-30 260 -2 14 -6 54 -10 90 -3 36 -7 76 -10 90 -2 14 -7 52 -10 85 -3 33 -7
71 -10 85 -2 14 -7 56 -10 93 -4 37 -8 77 -10 88 -2 11 -7 50 -10 87 -3 37 -8
74 -10 82 -2 8 -6 47 -9 85 -3 39 -8 79 -10 90 -2 11 -7 56 -11 100 -4 44 -8
82 -10 85 -1 3 -6 41 -9 85 -4 44 -9 87 -11 95 -2 8 -6 44 -9 80 -3 36 -8 74
-10 85 -2 11 -7 51 -11 89 -4 38 -8 79 -10 90 -2 12 -6 50 -10 86 -3 36 -8 74
-10 85 -2 11 -4 27 -4 35 -1 13 -186 15 -1607 15 -883 0 -1608 -3 -1610 -6z
m2888 -424 c4 -27 10 -81 14 -120 6 -71 7 -79 18 -175 4 -30 9 -71 11 -90 10
-88 17 -147 20 -170 2 -14 6 -54 10 -90 3 -36 8 -76 10 -90 2 -14 7 -54 11
-90 3 -36 7 -72 9 -80 1 -8 6 -46 9 -85 4 -38 9 -81 11 -95 2 -14 7 -52 10
-85 3 -33 8 -73 10 -90 8 -65 15 -123 20 -180 3 -33 10 -94 15 -135 5 -41 12
-100 15 -130 4 -30 8 -66 10 -80 2 -14 6 -52 10 -85 3 -33 8 -76 10 -95 2 -19
11 -100 20 -180 9 -80 18 -156 20 -170 2 -14 6 -54 10 -90 3 -36 8 -76 10 -90
2 -14 7 -54 11 -90 3 -36 7 -72 9 -80 2 -8 6 -49 10 -90 4 -41 9 -83 10 -92 2
-9 6 -48 10 -85 3 -37 8 -79 10 -93 2 -14 6 -50 10 -80 3 -30 8 -71 10 -90 4
-35 10 -84 21 -193 3 -32 7 -66 9 -75 1 -9 6 -46 10 -82 3 -36 8 -76 10 -90 2
-14 6 -52 10 -85 3 -33 10 -94 15 -135 5 -41 12 -100 15 -130 3 -30 8 -66 10
-80 2 -14 7 -59 10 -100 4 -41 8 -82 10 -90 2 -8 7 -45 10 -82 3 -37 7 -75 9
-85 2 -10 7 -49 10 -88 4 -38 9 -81 11 -95 2 -14 6 -52 10 -85 3 -33 8 -71 10
-85 2 -14 6 -52 10 -85 6 -64 12 -115 20 -180 3 -22 8 -62 10 -90 3 -27 7 -66
10 -85 2 -19 7 -60 10 -90 4 -30 8 -68 10 -85 2 -16 6 -57 10 -90 3 -33 8 -76
11 -95 5 -41 11 -95 19 -170 3 -30 7 -66 10 -80 2 -14 7 -56 10 -93 4 -37 8
-76 10 -85 1 -9 6 -51 10 -92 7 -79 9 -96 19 -175 4 -27 9 -69 11 -92 3 -24 7
-62 10 -85 2 -24 7 -65 10 -93 3 -27 8 -66 10 -85 2 -19 6 -57 10 -85 3 -27 8
-70 10 -95 3 -25 7 -61 10 -80 2 -19 7 -60 10 -90 11 -104 25 -226 30 -260 2
-14 7 -54 10 -90 3 -36 8 -78 10 -95 3 -16 7 -52 10 -80 3 -27 8 -70 11 -95 2
-25 7 -64 9 -87 8 -69 16 -136 20 -168 6 -50 19 -178 19 -205 l1 -25 -297 -1
-297 -1 -6 51 c-3 28 -8 67 -10 86 -2 19 -7 58 -10 85 -3 28 -8 66 -10 85 -8
85 -16 157 -20 185 -3 17 -7 57 -10 90 -3 33 -7 71 -10 85 -2 14 -7 53 -10 87
-3 34 -7 70 -9 80 -2 10 -7 47 -10 83 -4 36 -8 79 -10 95 -2 17 -7 57 -11 90
-3 33 -8 74 -10 90 -2 17 -7 57 -10 90 -3 33 -8 71 -10 85 -2 14 -6 54 -10 90
-4 36 -8 76 -10 90 -2 14 -6 50 -10 80 -8 77 -16 142 -29 260 -3 19 -7 62 -11
95 -3 33 -8 71 -10 85 -2 14 -7 54 -10 90 -3 36 -8 76 -10 90 -3 14 -7 54 -10
90 -3 36 -7 74 -9 85 -2 11 -7 52 -11 92 l-7 72 -940 -1 c-697 0 -940 -3 -943
-12 -2 -6 -6 -45 -9 -86 -4 -41 -8 -86 -11 -100 -3 -14 -7 -47 -10 -75 -8 -79
-15 -147 -20 -185 -2 -19 -7 -60 -10 -90 -4 -30 -8 -66 -10 -80 -2 -14 -6 -54
-10 -90 -4 -36 -8 -76 -10 -90 -2 -14 -6 -54 -10 -90 -3 -36 -8 -76 -10 -90
-2 -14 -7 -50 -10 -80 -3 -30 -7 -71 -10 -90 -2 -19 -7 -60 -10 -90 -3 -30 -8
-71 -10 -90 -8 -65 -14 -115 -20 -170 -3 -30 -8 -73 -11 -95 -2 -22 -7 -62 -9
-90 -3 -27 -8 -67 -10 -87 -3 -21 -7 -55 -10 -75 -2 -21 -7 -63 -10 -93 -3
-30 -8 -71 -10 -90 -2 -19 -7 -60 -10 -90 -3 -30 -8 -71 -10 -90 -2 -19 -7
-57 -10 -85 -3 -27 -7 -66 -10 -85 -2 -19 -7 -64 -10 -100 -4 -36 -8 -72 -11
-81 -4 -14 -40 -16 -304 -16 -270 0 -300 2 -296 16 3 9 8 48 11 86 4 39 8 81
10 95 1 14 6 54 10 90 3 36 8 76 10 90 2 14 6 50 10 80 3 30 8 71 10 90 2 19
7 60 10 90 3 30 8 71 10 90 9 68 24 206 30 265 4 33 8 71 10 85 2 14 7 57 11
95 3 39 8 72 9 75 2 3 6 43 10 90 4 47 8 92 10 100 2 8 6 44 9 80 4 36 9 76
11 90 2 14 7 54 10 90 4 36 8 77 11 91 5 37 12 92 19 169 3 36 8 72 10 80 2 8
7 49 10 90 4 41 8 82 10 90 2 8 6 49 10 90 4 41 9 83 10 92 2 10 6 48 10 86 3
38 7 78 9 88 2 10 7 51 10 89 4 39 9 77 11 85 2 8 6 41 9 73 11 103 18 172 21
189 2 9 7 49 10 89 4 40 8 80 10 88 1 9 6 50 10 91 4 41 9 83 10 92 2 9 7 48
10 85 4 37 9 75 10 83 1 8 6 44 9 80 4 36 9 81 11 100 5 39 12 99 20 175 3 28
8 66 10 85 2 19 7 60 10 90 3 30 8 71 10 90 10 75 16 127 20 168 2 23 7 68 10
100 4 31 8 68 10 82 2 14 6 50 10 80 3 30 7 69 9 85 3 17 7 62 11 100 4 39 9
77 10 85 1 8 6 49 10 90 4 41 9 83 11 93 2 10 6 48 10 85 3 36 7 73 9 82 2 8
6 49 10 90 3 41 8 82 10 90 2 8 7 45 10 82 3 37 7 75 9 85 2 10 7 52 11 93 4
41 8 82 10 90 1 8 6 49 10 90 4 41 9 82 10 90 1 8 6 46 10 83 3 37 8 76 10 85
1 9 6 49 9 87 4 39 9 81 11 95 4 25 10 77 20 175 6 63 16 143 20 175 4 24 22
182 30 265 4 37 9 82 20 175 5 38 16 141 20 180 6 54 18 156 20 170 2 13 43
15 301 15 293 0 299 0 298 -20 -1 -22 -12 -122 -19 -175 -2 -19 -7 -55 -9 -80
-3 -25 -10 -85 -16 -135 -6 -49 -13 -112 -15 -140 -8 -71 -16 -146 -20 -175
-2 -14 -6 -54 -10 -90 -4 -36 -8 -76 -10 -90 -2 -14 -7 -50 -10 -80 -3 -30
-10 -89 -15 -130 -5 -41 -12 -102 -15 -135 -4 -33 -8 -71 -10 -85 -2 -14 -7
-52 -10 -85 -3 -33 -7 -76 -10 -95 -2 -19 -7 -60 -10 -90 -4 -30 -8 -66 -10
-80 -2 -14 -6 -56 -10 -93 -3 -37 -8 -76 -10 -85 -1 -9 -6 -48 -10 -85 -3 -37
-8 -78 -10 -89 -3 -12 -7 -52 -10 -90 -4 -38 -8 -76 -10 -86 -1 -9 -6 -51 -10
-92 -4 -41 -8 -82 -10 -90 -1 -8 -6 -49 -10 -90 -4 -41 -9 -82 -10 -90 -1 -8
-6 -44 -10 -80 -3 -36 -8 -76 -10 -90 -2 -14 -6 -54 -10 -90 -4 -36 -8 -76
-10 -90 -2 -14 -11 -92 -20 -175 -9 -82 -18 -161 -20 -175 -2 -14 -6 -54 -10
-90 -3 -36 -8 -72 -10 -80 -2 -8 -7 -46 -10 -85 -4 -38 -8 -83 -10 -100 -3
-16 -7 -57 -10 -90 -3 -33 -8 -71 -10 -85 -2 -14 -6 -50 -10 -80 -3 -30 -8
-71 -10 -90 -8 -71 -16 -136 -19 -175 -8 -75 -17 -160 -22 -185 -2 -14 -7 -52
-10 -85 l-6 -60 893 1 c492 1 898 2 902 3 5 0 6 4 4 9 -3 4 -10 57 -17 117 -6
61 -13 124 -15 140 -7 54 -15 118 -30 260 -20 182 -25 235 -30 265 -2 14 -7
54 -10 90 -4 36 -9 79 -11 95 -2 17 -6 55 -9 85 -3 30 -8 66 -10 80 -2 14 -7
54 -10 90 -4 36 -8 76 -10 90 -2 14 -7 53 -10 88 -4 35 -8 71 -10 80 -1 9 -6
51 -10 92 -4 41 -9 82 -10 90 -1 8 -6 44 -9 80 -4 36 -9 79 -11 95 -2 17 -6
57 -10 90 -3 33 -12 114 -20 180 -14 117 -21 174 -30 265 -3 25 -7 59 -9 75
-3 17 -8 62 -11 100 -4 39 -8 77 -10 85 -2 8 -7 48 -10 89 -4 41 -8 82 -10 90
-2 9 -6 45 -10 81 -3 36 -8 76 -10 90 -2 14 -6 48 -9 75 -3 28 -8 73 -11 100
-4 28 -8 68 -10 90 -9 87 -18 161 -21 180 -2 11 -6 47 -9 80 -2 33 -6 69 -9
80 -2 11 -7 52 -10 90 -4 39 -8 86 -11 105 -7 54 -14 112 -30 258 -3 23 -7 61
-10 83 -6 57 -14 124 -20 184 -7 61 -14 118 -20 165 -2 19 -7 60 -10 90 -4 30
-8 69 -10 85 -2 17 -7 64 -10 105 -4 41 -11 79 -16 84 -5 6 -380 10 -974 10
l-964 0 -3 56 c-2 30 -2 106 0 168 l3 112 1252 -2 1252 -3 7 -50z m-888 -810
c16 -149 21 -190 31 -264 3 -21 8 -58 10 -82 2 -24 7 -62 9 -84 3 -22 8 -62
10 -90 9 -84 22 -198 31 -265 2 -19 7 -60 10 -90 3 -30 7 -68 9 -85 2 -16 7
-59 11 -95 4 -36 8 -72 10 -80 1 -8 6 -49 10 -90 4 -41 9 -82 10 -90 2 -8 6
-49 10 -90 4 -41 9 -84 11 -95 2 -11 6 -45 9 -75 3 -30 7 -71 10 -90 6 -50 13
-116 20 -185 4 -33 8 -71 10 -85 2 -14 7 -52 10 -85 3 -33 8 -71 10 -85 3 -14
7 -54 10 -90 3 -36 7 -81 10 -100 11 -81 32 -257 39 -335 3 -27 8 -76 11 -108
4 -32 8 -66 10 -75 1 -9 6 -46 10 -82 3 -36 8 -81 11 -100 2 -19 6 -57 9 -85
3 -27 7 -66 10 -85 3 -19 7 -60 10 -90 4 -30 8 -66 10 -80 4 -28 12 -99 20
-175 2 -27 9 -88 15 -135 5 -47 12 -110 16 -140 3 -30 9 -81 13 -112 l8 -58
-479 0 -480 0 7 63 c3 34 8 73 10 87 2 14 7 54 11 90 3 36 7 72 9 80 1 8 6 47
9 85 4 39 9 81 11 95 2 14 6 52 10 85 3 33 7 71 10 85 2 14 7 52 10 85 3 33 8
78 11 100 2 22 7 63 9 90 3 28 8 66 11 85 2 19 6 58 9 85 2 28 7 66 9 85 3 19
7 60 11 90 3 30 8 71 10 90 2 19 7 60 10 90 3 30 8 71 10 90 5 35 8 64 20 175
4 33 8 71 10 85 2 14 7 52 10 85 4 33 9 78 11 100 5 38 7 56 19 170 3 28 8 66
10 85 6 46 12 94 25 220 6 58 13 119 15 135 2 17 7 53 10 80 3 28 7 66 10 85
3 19 7 60 9 90 3 30 7 71 10 90 5 32 21 170 31 260 2 19 6 58 9 85 7 56 12
102 21 190 4 33 8 71 10 85 2 14 7 57 10 95 4 39 8 77 10 85 2 8 7 47 11 85 3
39 8 78 9 87 2 9 7 48 10 85 6 58 21 101 31 91 1 -2 10 -71 18 -153z"/>
<path d="M2195 22544 c-225 -53 -411 -221 -494 -445 -53 -143 -62 -357 -22
-518 56 -224 198 -420 387 -533 50 -31 53 -35 47 -63 -26 -123 11 -240 104
-325 84 -77 141 -94 303 -94 112 0 163 5 295 32 88 17 178 34 200 37 22 4 47
8 55 10 8 2 42 7 75 11 33 3 62 8 65 9 10 6 187 18 288 19 372 7 596 -96 730
-336 47 -82 56 -190 25 -283 -10 -27 -16 -54 -15 -59 2 -5 -2 -22 -7 -38 -6
-17 -13 -58 -16 -91 -4 -34 -8 -68 -10 -74 -3 -7 -1 -13 4 -13 4 0 15 28 25
63 53 192 203 334 396 376 205 46 390 7 481 -99 105 -122 111 -305 18 -626
-50 -176 -127 -341 -364 -787 -131 -247 -193 -368 -314 -607 -70 -140 -143
-289 -161 -330 -18 -41 -46 -104 -62 -140 -16 -36 -34 -74 -39 -85 -115 -260
-252 -682 -305 -940 -19 -96 -34 -179 -39 -215 -3 -25 -7 -56 -10 -70 -3 -14
-7 -57 -10 -97 -3 -39 -8 -87 -11 -105 -6 -40 -6 -405 0 -433 2 -11 7 -60 10
-110 12 -159 79 -443 135 -570 64 -146 164 -316 237 -405 47 -56 144 -149 204
-195 54 -41 194 -125 210 -125 4 0 28 -9 53 -20 194 -86 505 -100 762 -34 80
21 177 54 193 67 26 20 10 -8 -63 -108 -195 -271 -327 -529 -400 -782 -14 -49
-28 -100 -30 -112 -2 -13 -6 -30 -9 -39 -3 -9 -8 -37 -11 -62 -3 -25 -8 -52
-10 -60 -26 -93 -26 -561 0 -660 2 -8 6 -33 10 -54 3 -22 14 -73 25 -115 131
-515 427 -899 855 -1113 131 -66 299 -120 412 -134 17 -3 51 -8 75 -13 52 -9
301 -7 373 3 28 4 79 14 115 22 36 8 76 17 89 20 94 20 327 127 431 197 132
90 279 231 365 352 47 66 151 255 140 255 -4 0 -3 6 2 13 21 26 62 175 80 292
13 81 6 318 -12 404 -57 280 -181 501 -370 661 -121 103 -278 168 -420 175
-44 2 -69 2 -55 -1 91 -16 142 -29 195 -51 266 -110 461 -380 529 -733 15 -75
16 -335 2 -390 -3 -14 -9 -38 -12 -55 -21 -122 -104 -305 -190 -422 -337 -454
-979 -623 -1512 -399 -357 151 -653 521 -750 941 -29 124 -31 139 -39 230 -23
256 4 504 78 735 77 239 243 519 471 795 35 43 162 192 189 222 15 17 70 78
121 135 50 57 106 119 124 138 18 19 42 46 54 60 12 14 43 48 68 75 26 28 110
120 187 205 77 85 163 180 192 210 28 30 61 66 73 80 19 23 153 170 190 210 8
9 51 56 94 106 44 49 85 94 90 99 6 6 67 73 136 150 69 77 130 145 135 151 13
13 162 178 235 259 131 145 211 235 276 310 38 44 71 82 75 85 18 15 322 387
426 521 361 467 569 837 692 1234 30 97 64 234 76 305 3 19 10 53 15 75 56
251 63 743 15 1030 -18 113 -25 148 -40 210 -21 89 -21 90 -40 155 -22 74 -21
73 -27 90 -3 8 -16 44 -29 80 -115 330 -332 668 -581 905 -84 80 -288 245
-302 245 -2 0 -33 18 -69 40 -236 143 -528 236 -812 257 -728 55 -1422 -229
-1847 -757 -49 -60 -162 -226 -170 -250 -3 -8 -3 26 -1 75 15 258 -122 519
-342 648 -74 43 -203 92 -270 102 -22 4 -56 10 -75 14 -92 20 -398 18 -505 -3
-11 -2 -41 -7 -68 -10 -73 -10 -267 -52 -427 -92 -147 -36 -406 -99 -454 -109
-14 -3 -38 -7 -53 -10 -16 -3 -62 -12 -103 -20 -108 -22 -110 -22 -165 -29
-27 -4 -57 -9 -65 -11 -63 -17 -390 -25 -494 -12 -272 34 -445 167 -527 406
-69 200 -29 422 103 566 58 63 177 128 268 146 61 11 196 14 250 4 137 -25
299 -86 348 -132 7 -7 17 -13 22 -13 5 0 23 -12 41 -27 l34 -28 -22 30 c-98
137 -281 258 -462 307 -97 26 -281 32 -366 12z m5320 -1208 c53 -7 162 -26
220 -40 184 -43 428 -173 593 -315 58 -50 93 -85 207 -206 23 -24 31 -36 102
-137 145 -210 253 -455 317 -718 28 -117 34 -145 42 -210 3 -25 7 -56 10 -70
8 -48 18 -215 18 -325 0 -111 -12 -333 -18 -344 -2 -3 -6 -28 -10 -56 -3 -27
-8 -59 -10 -70 -4 -23 -16 -89 -23 -125 -40 -224 -159 -526 -308 -785 -117
-203 -347 -525 -527 -740 -9 -11 -53 -65 -98 -120 -81 -99 -96 -117 -246 -290
-131 -153 -187 -217 -239 -275 -27 -31 -75 -84 -105 -120 -30 -35 -64 -73 -75
-84 -11 -12 -49 -55 -85 -96 -36 -41 -67 -77 -70 -80 -3 -3 -52 -59 -110 -125
-58 -66 -109 -125 -115 -131 -17 -18 -127 -144 -206 -234 -40 -47 -86 -98
-100 -115 -15 -16 -64 -73 -109 -125 -45 -52 -106 -122 -135 -155 -29 -33 -70
-81 -91 -107 -34 -41 -66 -66 -49 -37 14 21 13 225 0 290 -42 201 -148 332
-314 391 -57 20 -246 34 -255 20 -3 -5 10 -9 27 -10 54 -4 144 -30 198 -57
294 -149 281 -623 -25 -930 -331 -333 -931 -396 -1268 -133 -235 183 -393 524
-426 918 -14 172 -6 566 14 663 2 12 6 38 9 57 20 152 94 466 151 640 15 47
28 87 29 90 0 3 5 19 12 35 6 17 37 100 68 185 87 234 265 647 424 983 28 59
51 109 51 111 0 2 22 50 49 107 64 137 217 489 266 612 l39 98 33 -93 c171
-484 565 -833 1053 -931 156 -32 332 -38 465 -17 193 30 429 126 570 232 413
311 576 797 415 1236 -21 57 -78 172 -85 172 -2 0 7 -24 19 -52 111 -253 103
-545 -23 -803 -220 -449 -712 -688 -1231 -599 -49 8 -222 64 -237 76 -7 6 -13
8 -13 5 0 -6 -109 49 -159 81 -100 62 -229 179 -312 282 -146 182 -244 446
-275 740 -10 94 -4 294 12 390 3 19 7 44 9 55 53 339 232 679 485 921 155 148
328 259 529 339 130 52 298 99 396 111 22 3 46 7 54 10 7 2 52 7 100 10 47 4
87 7 88 8 6 5 225 -2 278 -8z m-2622 -70 c200 -33 334 -128 412 -291 94 -197
65 -390 -79 -527 -22 -22 -57 -48 -77 -58 -34 -18 -39 -18 -85 -3 -35 12 -86
16 -179 16 -111 0 -143 -4 -219 -27 -112 -34 -201 -83 -278 -155 -49 -45 -59
-51 -53 -31 14 44 7 143 -15 213 -30 97 -83 182 -164 262 -151 151 -378 227
-676 228 -88 0 -221 -8 -298 -18 -28 -4 -263 -51 -297 -59 -42 -11 -86 -23
-193 -53 -174 -48 -248 -57 -328 -38 -81 19 -139 66 -175 142 -18 38 -36 123
-27 123 2 0 44 -14 94 -30 49 -17 100 -33 114 -35 14 -2 50 -10 80 -16 112
-22 455 -20 615 5 262 41 478 89 750 168 202 58 398 113 440 123 76 18 165 37
195 41 19 3 42 7 50 9 8 2 49 7 90 11 41 3 76 7 77 8 5 5 192 -2 226 -8z m468
-911 l-45 -134 -40 41 c-22 23 -54 49 -70 59 l-29 18 27 7 c35 8 133 73 171
112 17 17 30 32 31 32 0 0 -20 -61 -45 -135z"/>
<path d="M30920 22540 c-194 -40 -373 -149 -489 -299 l-34 -43 69 47 c99 68
168 99 290 130 413 105 739 -111 738 -490 -1 -194 -74 -360 -208 -471 -81 -68
-127 -91 -246 -121 -129 -33 -408 -37 -593 -8 -23 4 -53 8 -67 10 -25 4 -65
11 -120 20 -17 3 -62 12 -100 20 -38 8 -84 17 -102 20 -18 3 -98 22 -178 41
-80 20 -156 37 -170 40 -14 2 -36 9 -50 14 -14 5 -54 15 -90 24 -36 8 -103 24
-150 35 -47 11 -141 29 -210 40 -384 63 -675 41 -897 -65 -250 -121 -406 -378
-399 -659 2 -75 0 -94 -8 -80 -17 29 -138 209 -145 215 -3 3 -31 34 -61 70
-298 352 -779 614 -1257 686 -21 3 -49 7 -63 9 -156 23 -399 25 -570 3 -221
-27 -398 -81 -605 -184 -492 -243 -897 -727 -1091 -1304 -10 -30 -18 -57 -19
-60 0 -3 -3 -9 -6 -15 -5 -8 -15 -43 -24 -85 -1 -3 -4 -14 -8 -25 -3 -11 -8
-31 -11 -45 -2 -14 -11 -54 -20 -90 -8 -36 -18 -87 -21 -115 -4 -27 -8 -57
-10 -65 -6 -20 -14 -85 -24 -190 -9 -84 -6 -507 3 -565 2 -16 7 -55 11 -86 3
-31 8 -67 10 -80 3 -13 7 -40 10 -59 3 -19 7 -44 9 -55 2 -11 12 -54 20 -97 9
-42 25 -109 36 -150 11 -40 22 -80 24 -88 56 -209 210 -541 363 -783 118 -186
340 -490 481 -658 11 -13 55 -67 98 -119 79 -96 368 -431 435 -505 79 -86 96
-105 155 -171 34 -38 72 -81 85 -95 13 -14 58 -63 99 -109 41 -46 80 -88 85
-94 6 -6 93 -103 194 -216 102 -113 192 -212 200 -221 9 -9 52 -56 96 -105 44
-49 107 -118 140 -154 102 -111 248 -272 295 -325 25 -27 54 -59 65 -70 11
-12 58 -63 104 -115 47 -52 89 -99 95 -105 6 -5 43 -46 81 -89 39 -44 77 -87
85 -96 181 -194 427 -518 520 -685 82 -148 170 -356 186 -440 1 -5 6 -28 12
-50 29 -109 45 -249 46 -400 1 -145 -7 -272 -19 -307 -2 -7 -6 -29 -9 -48 -15
-98 -68 -264 -122 -376 -25 -53 -112 -199 -135 -228 -42 -53 -133 -156 -156
-176 -93 -83 -181 -147 -273 -197 -63 -34 -204 -90 -246 -97 -16 -3 -45 -10
-64 -16 -80 -23 -303 -33 -420 -17 -91 11 -256 55 -338 89 -394 163 -655 478
-726 878 -15 84 -16 317 -2 385 20 91 42 168 66 231 121 305 353 509 630 554
51 9 49 9 -25 5 -215 -12 -431 -142 -584 -352 -77 -106 -165 -295 -186 -398
-3 -11 -9 -40 -15 -65 -17 -75 -27 -198 -24 -303 11 -368 189 -715 489 -954
44 -35 85 -67 90 -71 6 -4 17 -11 25 -15 8 -4 33 -18 55 -32 57 -36 190 -99
260 -125 80 -29 247 -68 332 -77 124 -14 337 -8 443 12 159 31 274 70 415 142
50 25 92 50 93 54 2 5 8 9 13 9 10 0 134 87 181 128 58 50 163 156 208 212
209 256 349 603 388 965 9 82 9 395 -1 478 -44 396 -188 746 -462 1130 -84
117 -97 139 -72 119 6 -5 46 -21 88 -35 266 -89 554 -96 799 -21 328 101 598
363 755 735 44 103 98 265 109 325 3 16 8 43 11 59 3 17 8 41 10 55 41 213 50
617 20 845 -20 147 -39 264 -61 363 -14 64 -27 126 -30 136 -2 11 -11 41 -19
67 -9 26 -18 60 -21 76 -7 39 -107 337 -145 431 -55 138 -152 365 -197 462
-49 106 -254 518 -312 625 -40 75 -101 191 -198 375 -268 509 -342 699 -381
979 -7 49 -6 152 2 191 25 123 104 213 222 255 108 39 318 24 442 -30 142 -63
263 -210 294 -356 6 -30 14 -57 18 -61 12 -13 -7 156 -22 200 -8 23 -11 42 -6
42 5 0 3 12 -5 28 -86 169 39 430 263 545 36 19 91 42 122 51 143 43 423 53
639 21 14 -2 48 -6 75 -9 65 -8 218 -34 275 -46 25 -5 58 -12 74 -15 16 -2 52
-9 80 -14 91 -18 130 -22 211 -22 195 1 336 92 386 250 17 56 19 143 5 189 -4
12 7 24 42 44 59 33 192 145 217 184 10 16 25 35 32 42 19 19 76 119 100 177
47 109 67 213 67 345 1 115 -6 200 -18 219 -3 4 -8 23 -11 42 -3 19 -27 77
-52 129 -63 127 -181 249 -293 303 -159 76 -312 94 -490 57z m-4610 -1204
c235 -22 492 -99 700 -209 217 -116 390 -263 537 -460 80 -107 88 -121 162
-272 70 -144 125 -308 146 -435 3 -19 7 -46 10 -60 17 -101 22 -307 10 -420
-17 -167 -80 -392 -145 -520 -109 -218 -321 -429 -538 -535 -310 -153 -634
-170 -947 -51 -259 99 -473 294 -595 541 -71 142 -92 231 -96 395 -4 147 11
241 60 375 31 86 8 58 -33 -39 -55 -132 -73 -219 -76 -366 -4 -161 11 -254 60
-381 105 -273 325 -513 591 -647 61 -31 264 -105 264 -97 0 3 10 1 23 -4 13
-5 48 -12 78 -16 30 -4 57 -9 61 -11 8 -5 267 -6 293 -1 11 3 41 7 66 11 159
23 309 73 456 153 313 168 565 472 674 810 24 75 32 82 44 36 13 -55 193 -471
338 -783 19 -41 51 -111 72 -155 64 -137 225 -496 225 -500 0 -3 11 -28 24
-57 119 -260 284 -729 341 -968 45 -188 81 -397 91 -519 3 -42 7 -94 9 -116 6
-57 6 -312 0 -365 -2 -25 -7 -74 -10 -110 -10 -107 -14 -127 -41 -236 -129
-529 -447 -817 -898 -815 -71 0 -166 10 -247 26 -151 29 -360 134 -479 242
-277 249 -348 680 -146 887 65 67 205 127 301 128 38 0 39 1 11 9 -46 13 -175
2 -246 -20 -207 -66 -336 -290 -325 -566 2 -49 6 -98 10 -107 4 -10 5 -18 2
-18 -3 0 -51 53 -107 118 -57 64 -129 146 -160 182 -32 36 -88 101 -126 145
-38 44 -79 91 -92 105 -38 42 -46 52 -132 150 -45 52 -108 124 -139 159 -31
36 -65 74 -76 86 -11 12 -47 53 -80 91 -33 38 -62 71 -65 74 -12 10 -440 499
-586 670 -588 685 -884 1135 -1028 1565 -28 85 -79 279 -92 355 -4 25 -8 47
-9 50 -1 3 -5 34 -10 70 -4 36 -9 72 -10 80 -23 171 -23 516 0 650 2 14 6 39
8 55 51 332 164 642 325 890 112 171 288 361 434 468 87 65 247 151 358 195
206 81 480 113 750 88z m2535 -70 c103 -12 186 -26 295 -53 58 -13 112 -26
122 -28 9 -2 142 -40 295 -84 240 -69 430 -118 523 -134 14 -3 75 -14 135 -26
227 -42 314 -49 535 -46 168 2 213 7 355 39 19 4 121 37 158 51 35 14 13 -90
-34 -160 -33 -48 -89 -85 -151 -100 -82 -19 -166 -8 -353 46 -112 32 -287 73
-355 84 -25 4 -54 9 -65 12 -113 23 -375 33 -495 19 -246 -29 -408 -100 -541
-236 -115 -117 -176 -269 -167 -412 l5 -68 -42 41 c-84 83 -234 160 -355 184
-83 16 -244 13 -315 -5 l-70 -18 -41 24 c-51 29 -119 98 -150 154 -81 143 -65
334 42 495 84 128 216 203 389 222 28 3 51 6 52 7 5 5 170 -2 228 -8z m-646
-903 l60 -29 -27 -16 c-15 -9 -45 -35 -67 -58 l-40 -41 -33 98 c-18 54 -34
105 -37 113 -2 8 -7 24 -11 35 -5 13 11 3 44 -27 29 -25 79 -59 111 -75z"/>
</g>
</svg>
